<svg width="14" height="23" viewBox="0 0 14 23" version="1.1" xmlns="http://www.w3.org/2000/svg" xmlns:xlink="http://www.w3.org/1999/xlink">
<title>Shape</title>
<desc>Created using Figma</desc>
<g id="Canvas" transform="translate(-8385 -12254)">
<g id="Shape">
<use xlink:href="#path0_fill" transform="translate(8385.31 12254)" fill="#FFFFFF"/>
</g>
</g>
<defs>
<path id="path0_fill" fill-rule="evenodd" d="M 9.02735 5.69238C 9.02735 4.39258 7.93409 3.33594 6.59034 3.33594C 5.24757 3.33594 4.15333 4.39258 4.15333 5.69238C 4.15333 6.99121 5.24757 8.04883 6.59034 8.04883C 7.93409 8.04883 9.02735 6.99121 9.02735 5.69238ZM 12.4761 5.69238C 12.4761 8.83105 9.83692 11.3838 6.59034 11.3838C 3.34425 11.3838 0.704597 8.83105 0.704597 5.69238C 0.704597 2.55371 3.34425 0 6.59034 0C 9.83692 0 12.4761 2.55371 12.4761 5.69238ZM 12.4043 14.6611C 11.3399 15.3076 10.1846 15.7656 8.98633 16.0293L 12.2769 19.2119C 12.9507 19.8633 12.9507 20.9189 12.2769 21.5703C 11.6035 22.2217 10.5122 22.2217 9.83936 21.5703L 6.6045 18.4434L 3.37208 21.5703C 3.03516 21.8955 2.59376 22.0586 2.15186 22.0586C 1.71094 22.0586 1.27003 21.8955 0.933113 21.5703C 0.259773 20.9189 0.259773 19.8633 0.932624 19.2119L 4.22315 16.0293C 3.02491 15.7656 1.86964 15.3066 0.805183 14.6611C 7.13093e-06 14.1699 -0.24218 13.1406 0.265632 12.3613C 0.771492 11.5801 1.83594 11.3457 2.64259 11.8369C 5.05225 13.3027 8.15626 13.3027 10.5669 11.8369C 11.374 11.3457 12.4375 11.5801 12.9448 12.3613C 13.4522 13.1406 13.2095 14.1699 12.4043 14.6611Z"/>
</defs>
</svg>
