<svg width="22" height="18" viewBox="0 0 22 18" version="1.1" xmlns="http://www.w3.org/2000/svg" xmlns:xlink="http://www.w3.org/1999/xlink">
<title>Shape</title>
<desc>Created using Figma</desc>
<g id="Canvas" transform="translate(-8313 -12256)">
<g id="Shape">
<use xlink:href="#path0_fill" transform="translate(8313.69 12256.2)" fill="#FFFFFF"/>
</g>
</g>
<defs>
<path id="path0_fill" fill-rule="evenodd" d="M 10.349 4.69449L 10.3952 5.45779L 9.62519 5.36432C 6.82233 5.00604 4.37369 3.79099 2.29465 1.75033L 1.27823 0.737788L 1.01642 1.48551C 0.462009 3.15231 0.816216 4.91257 1.97124 6.09647C 2.58725 6.75073 2.44865 6.84419 1.38603 6.45475C 1.01642 6.33013 0.693014 6.23667 0.662213 6.2834C 0.554411 6.39244 0.924018 7.81 1.21662 8.37079C 1.61703 9.14967 2.43325 9.91297 3.32647 10.3647L 4.08108 10.723L 3.18786 10.7386C 2.32545 10.7386 2.29465 10.7542 2.38705 11.0813C 2.69505 12.0938 3.91168 13.1687 5.2669 13.636L 6.22172 13.9631L 5.39011 14.4616C 4.15808 15.1782 2.71045 15.5832 1.26282 15.6144C 0.569811 15.6299 0 15.6922 0 15.739C 0 15.8948 1.87884 16.7671 2.97226 17.1098C 6.25252 18.1223 10.1488 17.6862 13.0749 15.9571C 15.1539 14.7264 17.2329 12.2808 18.2032 9.91297C 18.7268 8.65119 19.2504 6.34571 19.2504 5.2397C 19.2504 4.52313 19.2966 4.42967 20.159 3.5729C 20.6672 3.07442 21.1446 2.52921 21.237 2.37343C 21.391 2.07746 21.3756 2.07746 20.5902 2.34228C 19.2812 2.8096 19.0964 2.74729 19.7432 2.0463C 20.2206 1.54782 20.7904 0.644323 20.7904 0.379504C 20.7904 0.332772 20.5594 0.410659 20.2976 0.550857C 20.0204 0.706633 19.4044 0.940296 18.9424 1.08049L 18.1108 1.34531L 17.3561 0.831254C 16.9403 0.550857 16.3551 0.239306 16.0471 0.145841C 15.2617 -0.0722448 14.0605 -0.0410897 13.3521 0.208151C 11.427 0.909141 10.2104 2.71614 10.349 4.69449Z"/>
</defs>
</svg>
