<svg width="25" height="14" viewBox="0 0 25 14" version="1.1" xmlns="http://www.w3.org/2000/svg" xmlns:xlink="http://www.w3.org/1999/xlink">
<title>Shape</title>
<desc>Created using Figma</desc>
<g id="Canvas" transform="translate(-8239 -12259)">
<g id="Shape">
<use xlink:href="#path0_fill" transform="translate(8239.78 12259.1)" fill="#FFFFFF"/>
</g>
</g>
<defs>
<path id="path0_fill" fill-rule="evenodd" d="M 12.894 13.1217C 12.894 13.1217 13.3179 13.0753 13.535 12.846C 13.7337 12.6359 13.7268 12.2394 13.7268 12.2394C 13.7268 12.2394 13.7004 10.3879 14.5745 10.1145C 15.4359 9.84562 16.5421 11.905 17.716 12.6969C 18.6027 13.2956 19.2758 13.1646 19.2758 13.1646L 22.4127 13.1217C 22.4127 13.1217 24.053 13.0222 23.2754 11.7536C 23.211 11.6497 22.8216 10.8149 20.9436 9.10004C 18.976 7.305 19.2402 7.59532 21.6087 4.48987C 23.0514 2.5988 23.628 1.44428 23.4477 0.950618C 23.2765 0.478417 22.2152 0.60381 22.2152 0.60381L 18.6843 0.625273C 18.6843 0.625273 18.4224 0.590254 18.2283 0.70435C 18.0387 0.816187 17.9158 1.07714 17.9158 1.07714C 17.9158 1.07714 17.3576 2.54006 16.6121 3.78495C 15.0397 6.4103 14.4114 6.54925 14.1541 6.38658C 13.5556 6.00588 13.705 4.85927 13.705 4.04478C 13.705 1.49964 14.0978 0.438878 12.9411 0.164369C 12.5575 0.0728659 12.2749 0.0129935 11.2928 0.00282647C 10.0328 -0.00959988 8.96684 0.00734513 8.36266 0.29767C 7.96064 0.490843 7.65051 0.922376 7.84004 0.947229C 8.07321 0.97773 8.60158 1.08731 8.88185 1.46236C 9.24366 1.94698 9.23103 3.03373 9.23103 3.03373C 9.23103 3.03373 9.43893 6.0296 8.74516 6.40127C 8.26962 6.65657 7.6172 6.13579 6.21472 3.75332C 5.49683 2.53328 4.95467 1.18446 4.95467 1.18446C 4.95467 1.18446 4.85015 0.932543 4.66292 0.796983C 4.43664 0.633181 4.12076 0.582346 4.12076 0.582346L 0.765608 0.60381C 0.765608 0.60381 0.261358 0.617366 0.0764281 0.833132C -0.0878263 1.02405 0.0637932 1.42056 0.0637932 1.42056C 0.0637932 1.42056 2.69072 7.46541 5.66567 10.5121C 8.39368 13.3047 11.4904 13.1217 11.4904 13.1217L 12.894 13.1217Z"/>
</defs>
</svg>
