<svg width="94" height="31" viewBox="0 0 94 31" version="1.1" xmlns="http://www.w3.org/2000/svg" xmlns:xlink="http://www.w3.org/1999/xlink">
<title>logo</title>
<desc>Created using Figma</desc>
<g id="Canvas" transform="translate(-7411 -5118)">
<g id="logo">
<use xlink:href="#path0_fill" transform="translate(7411.71 5119)" fill="#FFFFFF"/>
<use xlink:href="#path1_fill" transform="translate(7411.71 5119)" fill="#FFFFFF"/>
<use xlink:href="#path2_fill" transform="translate(7411.71 5119)" fill="#FFFFFF"/>
<use xlink:href="#path3_fill" transform="translate(7411.71 5119)" fill="#FFFFFF"/>
<use xlink:href="#path4_fill" transform="translate(7411.71 5119)" fill="#FFFFFF"/>
<use xlink:href="#path5_fill" transform="translate(7411.71 5119)" fill="#FFFFFF"/>
<use xlink:href="#path6_fill" transform="translate(7411.71 5119)" fill="#FFFFFF"/>
<use xlink:href="#path7_fill" transform="translate(7411.71 5119)" fill="#FFFFFF"/>
<use xlink:href="#path8_fill" transform="translate(7411.71 5119)" fill="#FFFFFF"/>
<use xlink:href="#path9_fill" transform="translate(7411.71 5119)" fill="#FFFFFF"/>
<use xlink:href="#path10_fill" transform="translate(7411.71 5119)" fill="#FFFFFF"/>
<use xlink:href="#path11_fill" transform="translate(7411.71 5119)" fill="#FFFFFF"/>
<use xlink:href="#path12_fill" transform="translate(7411.71 5119)" fill="#FFFFFF"/>
<use xlink:href="#path13_fill" transform="translate(7411.71 5119)" fill="#FFFFFF"/>
<use xlink:href="#path14_fill" transform="translate(7411.71 5119)" fill="#FFFFFF"/>
<mask id="mask0_outline_out">
<rect id="mask0_outline_inv" fill="white" x="-1" y="-1" width="94" height="31" transform="translate(7411.71 5119)"/>
<use xlink:href="#path0_fill" fill="black" transform="translate(7411.71 5119)"/>
<use xlink:href="#path1_fill" fill="black" transform="translate(7411.71 5119)"/>
<use xlink:href="#path2_fill" fill="black" transform="translate(7411.71 5119)"/>
<use xlink:href="#path3_fill" fill="black" transform="translate(7411.71 5119)"/>
<use xlink:href="#path4_fill" fill="black" transform="translate(7411.71 5119)"/>
<use xlink:href="#path5_fill" fill="black" transform="translate(7411.71 5119)"/>
<use xlink:href="#path6_fill" fill="black" transform="translate(7411.71 5119)"/>
<use xlink:href="#path7_fill" fill="black" transform="translate(7411.71 5119)"/>
<use xlink:href="#path8_fill" fill="black" transform="translate(7411.71 5119)"/>
<use xlink:href="#path9_fill" fill="black" transform="translate(7411.71 5119)"/>
<use xlink:href="#path10_fill" fill="black" transform="translate(7411.71 5119)"/>
<use xlink:href="#path11_fill" fill="black" transform="translate(7411.71 5119)"/>
<use xlink:href="#path12_fill" fill="black" transform="translate(7411.71 5119)"/>
<use xlink:href="#path13_fill" fill="black" transform="translate(7411.71 5119)"/>
<use xlink:href="#path14_fill" fill="black" transform="translate(7411.71 5119)"/>
</mask>
<g mask="url(#mask0_outline_out)">
<use xlink:href="#path15_stroke_2x" transform="translate(7411.71 5119)" fill="#FFFFFF"/>
</g>
</g>
</g>
<defs>
<path id="path0_fill" d="M 6.748 2.478C 6.748 2.72067 6.71533 2.96333 6.65 3.206C 6.594 3.44867 6.496 3.67267 6.356 3.878C 6.216 4.074 6.034 4.25133 5.81 4.41C 5.586 4.55933 5.31533 4.67133 4.998 4.746L 4.998 4.83C 5.278 4.87667 5.544 4.956 5.796 5.068C 6.048 5.18 6.26733 5.334 6.454 5.53C 6.64067 5.726 6.78533 5.964 6.888 6.244C 7 6.524 7.056 6.85533 7.056 7.238C 7.056 7.742 6.94867 8.18067 6.734 8.554C 6.51933 8.918 6.23 9.21667 5.866 9.45C 5.51133 9.68333 5.10533 9.856 4.648 9.968C 4.19067 10.08 3.71933 10.136 3.234 10.136C 3.07533 10.136 2.87 10.136 2.618 10.136C 2.37533 10.136 2.10933 10.1267 1.82 10.108C 1.54 10.0987 1.25067 10.08 0.952 10.052C 0.662667 10.024 0.396667 9.982 0.154 9.926L 0.154 0.266C 0.331333 0.237999 0.532 0.21 0.756 0.182C 0.989333 0.154 1.23667 0.130666 1.498 0.112C 1.75933 0.0933332 2.02533 0.0793334 2.296 0.0699999C 2.576 0.0606664 2.85133 0.0560001 3.122 0.0560001C 3.57933 0.0560001 4.02267 0.0933332 4.452 0.168C 4.89067 0.233333 5.278 0.354667 5.614 0.532C 5.95933 0.709333 6.23467 0.956667 6.44 1.274C 6.64533 1.59133 6.748 1.99267 6.748 2.478ZM 3.248 8.554C 3.48133 8.554 3.70533 8.526 3.92 8.47C 4.144 8.414 4.34 8.33 4.508 8.218C 4.676 8.09667 4.81133 7.94733 4.914 7.77C 5.01667 7.59267 5.068 7.38267 5.068 7.14C 5.068 6.832 5.00733 6.58933 4.886 6.412C 4.76467 6.23467 4.606 6.09933 4.41 6.006C 4.214 5.90333 3.99467 5.838 3.752 5.81C 3.50933 5.782 3.26667 5.768 3.024 5.768L 2.002 5.768L 2.002 8.47C 2.04867 8.48867 2.12333 8.50267 2.226 8.512C 2.32867 8.52133 2.436 8.53067 2.548 8.54C 2.66933 8.54 2.79067 8.54467 2.912 8.554C 3.04267 8.554 3.15467 8.554 3.248 8.554ZM 2.618 4.312C 2.74867 4.312 2.898 4.30733 3.066 4.298C 3.24333 4.28867 3.388 4.27467 3.5 4.256C 3.85467 4.144 4.158 3.976 4.41 3.752C 4.67133 3.528 4.802 3.234 4.802 2.87C 4.802 2.62733 4.75533 2.42667 4.662 2.268C 4.56867 2.10933 4.44267 1.98333 4.284 1.89C 4.13467 1.79667 3.962 1.73133 3.766 1.694C 3.57 1.65667 3.36467 1.638 3.15 1.638C 2.90733 1.638 2.68333 1.64267 2.478 1.652C 2.27267 1.66133 2.114 1.67533 2.002 1.694L 2.002 4.312L 2.618 4.312Z"/>
<path id="path1_fill" d="M 11.9645 5.096C 11.9645 4.30267 12.0392 3.58867 12.1885 2.954C 12.3379 2.31933 12.5665 1.78733 12.8745 1.358C 13.1825 0.919333 13.5652 0.583333 14.0225 0.35C 14.4892 0.116667 15.0352 0 15.6605 0C 16.3325 0 16.9019 0.126 17.3685 0.378C 17.8352 0.629999 18.2132 0.98 18.5025 1.428C 18.8012 1.876 19.0159 2.41267 19.1465 3.038C 19.2865 3.66333 19.3565 4.34933 19.3565 5.096C 19.3565 6.692 19.0485 7.94267 18.4325 8.848C 17.8259 9.744 16.9019 10.192 15.6605 10.192C 14.9885 10.192 14.4145 10.066 13.9385 9.814C 13.4719 9.562 13.0892 9.212 12.7905 8.764C 12.5012 8.316 12.2912 7.77933 12.1605 7.154C 12.0299 6.52867 11.9645 5.84267 11.9645 5.096ZM 13.9805 5.096C 13.9805 5.572 13.9992 6.01533 14.0365 6.426C 14.0832 6.83667 14.1625 7.196 14.2745 7.504C 14.3959 7.80267 14.5639 8.04067 14.7785 8.218C 15.0025 8.39533 15.2965 8.484 15.6605 8.484C 15.9872 8.484 16.2579 8.41867 16.4725 8.288C 16.6872 8.148 16.8599 7.938 16.9905 7.658C 17.1212 7.378 17.2099 7.028 17.2565 6.608C 17.3125 6.17867 17.3405 5.67467 17.3405 5.096C 17.3405 4.63867 17.3219 4.20467 17.2845 3.794C 17.2565 3.38333 17.1819 3.024 17.0605 2.716C 16.9485 2.408 16.7805 2.16533 16.5565 1.988C 16.3325 1.80133 16.0339 1.708 15.6605 1.708C 15.0072 1.708 14.5639 1.99267 14.3305 2.562C 14.0972 3.13133 13.9805 3.976 13.9805 5.096Z"/>
<path id="path2_fill" d="M 25.2871 8.456L 26.8831 8.456L 26.8831 1.736L 25.5391 1.736L 25.5391 3.43L 23.9991 3.43L 23.9991 0.196L 31.6711 0.196L 31.6711 3.43L 30.1311 3.43L 30.1311 1.736L 28.8011 1.736L 28.8011 8.456L 30.3831 8.456L 30.3831 9.996L 25.2871 9.996L 25.2871 8.456Z"/>
<path id="path3_fill" d="M 37.9656 5.166L 42.0396 5.166L 42.0396 6.776L 37.9656 6.776L 37.9656 5.166Z"/>
<path id="path4_fill" d="M 55.4461 2.478C 55.4461 2.72067 55.4135 2.96333 55.3481 3.206C 55.2921 3.44867 55.1941 3.67267 55.0541 3.878C 54.9141 4.074 54.7321 4.25133 54.5081 4.41C 54.2841 4.55933 54.0135 4.67133 53.6961 4.746L 53.6961 4.83C 53.9761 4.87667 54.2421 4.956 54.4941 5.068C 54.7461 5.18 54.9655 5.334 55.1521 5.53C 55.3388 5.726 55.4835 5.964 55.5861 6.244C 55.6981 6.524 55.7541 6.85533 55.7541 7.238C 55.7541 7.742 55.6468 8.18067 55.4321 8.554C 55.2175 8.918 54.9281 9.21667 54.5641 9.45C 54.2095 9.68333 53.8035 9.856 53.3461 9.968C 52.8888 10.08 52.4175 10.136 51.9321 10.136C 51.7735 10.136 51.5681 10.136 51.3161 10.136C 51.0735 10.136 50.8075 10.1267 50.5181 10.108C 50.2381 10.0987 49.9488 10.08 49.6501 10.052C 49.3608 10.024 49.0948 9.982 48.8521 9.926L 48.8521 0.266C 49.0295 0.237999 49.2301 0.21 49.4541 0.182C 49.6875 0.154 49.9348 0.130666 50.1961 0.112C 50.4575 0.0933332 50.7235 0.0793334 50.9941 0.0699999C 51.2741 0.0606664 51.5495 0.0560001 51.8201 0.0560001C 52.2775 0.0560001 52.7208 0.0933332 53.1501 0.168C 53.5888 0.233333 53.9761 0.354667 54.3121 0.532C 54.6575 0.709333 54.9328 0.956667 55.1381 1.274C 55.3435 1.59133 55.4461 1.99267 55.4461 2.478ZM 51.9461 8.554C 52.1795 8.554 52.4035 8.526 52.6181 8.47C 52.8421 8.414 53.0381 8.33 53.2061 8.218C 53.3741 8.09667 53.5095 7.94733 53.6121 7.77C 53.7148 7.59267 53.7661 7.38267 53.7661 7.14C 53.7661 6.832 53.7055 6.58933 53.5841 6.412C 53.4628 6.23467 53.3041 6.09933 53.1081 6.006C 52.9121 5.90333 52.6928 5.838 52.4501 5.81C 52.2075 5.782 51.9648 5.768 51.7221 5.768L 50.7001 5.768L 50.7001 8.47C 50.7468 8.48867 50.8215 8.50267 50.9241 8.512C 51.0268 8.52133 51.1341 8.53067 51.2461 8.54C 51.3675 8.54 51.4888 8.54467 51.6101 8.554C 51.7408 8.554 51.8528 8.554 51.9461 8.554ZM 51.3161 4.312C 51.4468 4.312 51.5961 4.30733 51.7641 4.298C 51.9415 4.28867 52.0861 4.27467 52.1981 4.256C 52.5528 4.144 52.8561 3.976 53.1081 3.752C 53.3695 3.528 53.5001 3.234 53.5001 2.87C 53.5001 2.62733 53.4535 2.42667 53.3601 2.268C 53.2668 2.10933 53.1408 1.98333 52.9821 1.89C 52.8328 1.79667 52.6601 1.73133 52.4641 1.694C 52.2681 1.65667 52.0628 1.638 51.8481 1.638C 51.6055 1.638 51.3815 1.64267 51.1761 1.652C 50.9708 1.66133 50.8121 1.67533 50.7001 1.694L 50.7001 4.312L 51.3161 4.312Z"/>
<path id="path5_fill" d="M 60.6627 5.096C 60.6627 4.30267 60.7373 3.58867 60.8867 2.954C 61.036 2.31933 61.2647 1.78733 61.5727 1.358C 61.8807 0.919333 62.2633 0.583333 62.7207 0.35C 63.1873 0.116667 63.7333 0 64.3587 0C 65.0307 0 65.6 0.126 66.0667 0.378C 66.5333 0.629999 66.9113 0.98 67.2007 1.428C 67.4993 1.876 67.714 2.41267 67.8447 3.038C 67.9847 3.66333 68.0547 4.34933 68.0547 5.096C 68.0547 6.692 67.7467 7.94267 67.1307 8.848C 66.524 9.744 65.6 10.192 64.3587 10.192C 63.6867 10.192 63.1127 10.066 62.6367 9.814C 62.17 9.562 61.7873 9.212 61.4887 8.764C 61.1993 8.316 60.9893 7.77933 60.8587 7.154C 60.728 6.52867 60.6627 5.84267 60.6627 5.096ZM 62.6787 5.096C 62.6787 5.572 62.6973 6.01533 62.7347 6.426C 62.7813 6.83667 62.8607 7.196 62.9727 7.504C 63.094 7.80267 63.262 8.04067 63.4767 8.218C 63.7007 8.39533 63.9947 8.484 64.3587 8.484C 64.6853 8.484 64.956 8.41867 65.1707 8.288C 65.3853 8.148 65.558 7.938 65.6887 7.658C 65.8193 7.378 65.908 7.028 65.9547 6.608C 66.0107 6.17867 66.0387 5.67467 66.0387 5.096C 66.0387 4.63867 66.02 4.20467 65.9827 3.794C 65.9547 3.38333 65.88 3.024 65.7587 2.716C 65.6467 2.408 65.4787 2.16533 65.2547 1.988C 65.0307 1.80133 64.732 1.708 64.3587 1.708C 63.7053 1.708 63.262 1.99267 63.0287 2.562C 62.7953 3.13133 62.6787 3.976 62.6787 5.096Z"/>
<path id="path6_fill" d="M 73.9852 8.456L 75.5812 8.456L 75.5812 1.736L 74.2372 1.736L 74.2372 3.43L 72.6972 3.43L 72.6972 0.196L 80.3692 0.196L 80.3692 3.43L 78.8292 3.43L 78.8292 1.736L 77.4992 1.736L 77.4992 8.456L 79.0812 8.456L 79.0812 9.996L 73.9852 9.996L 73.9852 8.456Z"/>
<path id="path7_fill" d="M 0 25.706L 1.54 25.706L 1.54 27.274C 1.568 27.2833 1.59133 27.2927 1.61 27.302C 1.81533 27.3673 2.03 27.4233 2.254 27.47C 2.48733 27.5167 2.73933 27.54 3.01 27.54C 3.234 27.54 3.44867 27.512 3.654 27.456C 3.86867 27.4 4.06 27.3113 4.228 27.19C 4.396 27.0687 4.52667 26.9147 4.62 26.728C 4.72267 26.5413 4.774 26.3173 4.774 26.056C 4.774 25.7667 4.71333 25.5333 4.592 25.356C 4.48 25.1693 4.326 25.0293 4.13 24.936C 3.934 24.8333 3.71 24.7633 3.458 24.726C 3.21533 24.6887 2.968 24.6653 2.716 24.656L 2.296 24.656L 2.296 23.158L 2.702 23.158C 2.898 23.158 3.09867 23.1393 3.304 23.102C 3.51867 23.0647 3.71 22.9993 3.878 22.906C 4.046 22.8127 4.186 22.6867 4.298 22.528C 4.41 22.36 4.466 22.15 4.466 21.898C 4.466 21.6833 4.424 21.5013 4.34 21.352C 4.256 21.1933 4.13933 21.0673 3.99 20.974C 3.84067 20.8713 3.668 20.7967 3.472 20.75C 3.276 20.7033 3.06133 20.68 2.828 20.68C 2.38933 20.68 2.00667 20.7267 1.68 20.82L 1.68 22.262L 0.14 22.262L 0.14 19.602C 0.485333 19.4527 0.928667 19.322 1.47 19.21C 2.02067 19.0887 2.59933 19.028 3.206 19.028C 3.61667 19.028 4.018 19.07 4.41 19.154C 4.802 19.2287 5.152 19.364 5.46 19.56C 5.768 19.7467 6.01533 20.0033 6.202 20.33C 6.38867 20.6473 6.482 21.0487 6.482 21.534C 6.482 22.0193 6.35133 22.458 6.09 22.85C 5.838 23.242 5.42733 23.5313 4.858 23.718L 4.858 23.788C 5.474 23.9467 5.95 24.2127 6.286 24.586C 6.622 24.9593 6.79 25.482 6.79 26.154C 6.79 26.686 6.68267 27.1433 6.468 27.526C 6.25333 27.9087 5.96867 28.226 5.614 28.478C 5.26867 28.7207 4.86733 28.898 4.41 29.01C 3.95267 29.1313 3.486 29.192 3.01 29.192C 2.394 29.192 1.82467 29.136 1.302 29.024C 0.788667 28.9213 0.354667 28.786 0 28.618L 0 25.706Z"/>
<path id="path8_fill" d="M 17.0605 26.826L 14.1345 26.826L 13.4625 28.996L 11.5445 28.996L 14.7085 19.196L 16.6265 19.196L 19.7765 28.996L 17.7605 28.996L 17.0605 26.826ZM 14.5825 25.286L 16.6825 25.286L 15.6885 22.01L 15.5625 22.01L 14.5825 25.286Z"/>
<path id="path9_fill" d="M 29.3331 20.904L 26.3371 20.904L 26.3371 28.996L 24.4191 28.996L 24.4191 19.196L 31.2511 19.196L 31.2511 28.996L 29.3331 28.996L 29.3331 20.904Z"/>
<path id="path10_fill" d="M 39.9676 24.348L 40.6396 24.348L 42.0256 19.196L 43.9996 19.196L 41.7596 26.434C 41.6289 26.8447 41.4843 27.218 41.3256 27.554C 41.1763 27.8807 40.9896 28.1607 40.7656 28.394C 40.5509 28.618 40.2896 28.7907 39.9816 28.912C 39.6736 29.0333 39.3003 29.094 38.8616 29.094C 38.5909 29.094 38.3483 29.0707 38.1336 29.024C 37.9189 28.9773 37.6856 28.8793 37.4336 28.73L 37.9236 27.176C 38.0916 27.26 38.2363 27.316 38.3576 27.344C 38.4883 27.372 38.6283 27.386 38.7776 27.386C 38.9829 27.386 39.1556 27.358 39.2956 27.302C 39.4356 27.246 39.5476 27.162 39.6316 27.05C 39.7249 26.938 39.8043 26.798 39.8696 26.63C 39.9349 26.462 39.9956 26.2707 40.0516 26.056L 38.6376 26.056L 35.8936 19.196L 37.9516 19.196L 39.9676 24.348Z"/>
<path id="path11_fill" d="M 54.2001 25.706L 55.7401 25.706L 55.7401 28.506C 55.4415 28.7207 55.0588 28.8887 54.5921 29.01C 54.1348 29.1313 53.6635 29.192 53.1781 29.192C 52.5621 29.192 51.9741 29.1033 51.4141 28.926C 50.8635 28.7393 50.3781 28.4453 49.9581 28.044C 49.5381 27.6333 49.2021 27.106 48.9501 26.462C 48.6981 25.8087 48.5721 25.02 48.5721 24.096C 48.5721 23.1347 48.7121 22.332 48.9921 21.688C 49.2815 21.0347 49.6501 20.512 50.0981 20.12C 50.5461 19.7187 51.0455 19.434 51.5961 19.266C 52.1468 19.0887 52.6881 19 53.2201 19C 53.7801 19 54.2515 19.0467 54.6341 19.14C 55.0261 19.2333 55.3481 19.3407 55.6001 19.462L 55.6001 22.374L 54.0601 22.374L 54.0601 20.778C 53.7708 20.7313 53.4721 20.708 53.1641 20.708C 52.8001 20.708 52.4595 20.778 52.1421 20.918C 51.8341 21.0487 51.5635 21.254 51.3301 21.534C 51.0968 21.814 50.9148 22.1687 50.7841 22.598C 50.6535 23.018 50.5881 23.5173 50.5881 24.096C 50.5881 24.6 50.6488 25.062 50.7701 25.482C 50.8915 25.8927 51.0688 26.2473 51.3021 26.546C 51.5355 26.8447 51.8201 27.078 52.1561 27.246C 52.4921 27.4047 52.8748 27.484 53.3041 27.484C 53.6121 27.484 53.9108 27.456 54.2001 27.4L 54.2001 25.706Z"/>
<path id="path12_fill" d="M 61.8107 27.456L 63.4067 27.456L 63.4067 20.736L 62.0627 20.736L 62.0627 22.43L 60.5227 22.43L 60.5227 19.196L 68.1947 19.196L 68.1947 22.43L 66.6547 22.43L 66.6547 20.736L 65.3247 20.736L 65.3247 27.456L 66.9067 27.456L 66.9067 28.996L 61.8107 28.996L 61.8107 27.456Z"/>
<path id="path13_fill" d="M 78.1152 23.816L 78.2272 22.542L 78.1572 22.542L 77.5832 23.858L 74.8112 28.996L 73.0332 28.996L 73.0332 19.196L 74.9512 19.196L 74.9512 24.278L 74.8112 25.594L 74.8952 25.594L 75.4972 24.236L 78.2692 19.196L 80.0332 19.196L 80.0332 28.996L 78.1152 28.996L 78.1152 23.816Z"/>
<path id="path14_fill" d="M 90.4297 23.774L 90.4997 22.248L 90.4157 22.248L 88.8477 24.81L 88.5117 24.81L 86.8737 22.248L 86.8037 22.248L 86.8877 23.62L 86.8877 28.996L 85.0677 28.996L 85.0677 19.196L 87.0137 19.196L 88.6937 21.912L 88.7497 21.912L 90.4157 19.196L 92.3477 19.196L 92.3477 28.996L 90.4297 28.996L 90.4297 23.774Z"/>
<path id="path15_stroke_2x" d="M 6.65 3.206L 6.36013 3.12796L 6.35768 3.13854L 6.65 3.206ZM 6.356 3.878L 6.60018 4.05241L 6.60387 4.047L 6.356 3.878ZM 5.81 4.41L 5.97648 4.65971L 5.98341 4.65481L 5.81 4.41ZM 4.998 4.746L 4.92929 4.45397L 4.698 4.5084L 4.698 4.746L 4.998 4.746ZM 4.998 4.83L 4.698 4.83L 4.698 5.08414L 4.94868 5.12592L 4.998 4.83ZM 5.796 5.068L 5.67416 5.34214L 5.67416 5.34214L 5.796 5.068ZM 6.454 5.53L 6.67124 5.3231L 6.67124 5.3231L 6.454 5.53ZM 6.888 6.244L 6.60622 6.34732L 6.60946 6.35542L 6.888 6.244ZM 6.734 8.554L 6.99243 8.7064L 6.99407 8.70354L 6.734 8.554ZM 5.866 9.45L 5.70409 9.19742L 5.70112 9.19937L 5.866 9.45ZM 4.648 9.968L 4.57664 9.67661L 4.57664 9.67661L 4.648 9.968ZM 1.82 10.108L 1.83932 9.80848L 1.82999 9.80817L 1.82 10.108ZM 0.952 10.052L 0.923103 10.3506L 0.923998 10.3507L 0.952 10.052ZM 0.154 9.926L -0.146 9.926L -0.146 10.1647L 0.0865422 10.2183L 0.154 9.926ZM 0.154 0.266L 0.10721 -0.0303289L -0.146 0.00965242L -0.146 0.266L 0.154 0.266ZM 0.756 0.182L 0.720255 -0.115866L 0.71879 -0.115683L 0.756 0.182ZM 1.498 0.112L 1.51937 0.411238L 1.51937 0.411238L 1.498 0.112ZM 2.296 0.0699999L 2.28601 -0.229834L 2.28566 -0.229822L 2.296 0.0699999ZM 4.452 0.168L 4.40058 0.463651L 4.40781 0.464727L 4.452 0.168ZM 5.614 0.532L 5.47396 0.797332L 5.47696 0.79887L 5.614 0.532ZM 6.44 1.274L 6.69187 1.11102L 6.69187 1.11102L 6.44 1.274ZM 3.92 8.47L 3.84724 8.17894L 3.84427 8.17972L 3.92 8.47ZM 4.508 8.218L 4.67453 8.46779L 4.68365 8.4612L 4.508 8.218ZM 4.914 7.77L 5.17363 7.92031L 5.17363 7.92031L 4.914 7.77ZM 4.886 6.412L 5.13359 6.24259L 5.13359 6.24259L 4.886 6.412ZM 4.41 6.006L 4.2707 6.27194L 4.28102 6.27686L 4.41 6.006ZM 2.002 5.768L 2.002 5.468L 1.702 5.468L 1.702 5.768L 2.002 5.768ZM 2.002 8.47L 1.702 8.47L 1.702 8.67311L 1.89058 8.74854L 2.002 8.47ZM 2.226 8.512L 2.19884 8.81077L 2.19884 8.81077L 2.226 8.512ZM 2.548 8.54L 2.52309 8.83896L 2.53552 8.84L 2.548 8.84L 2.548 8.54ZM 2.912 8.554L 2.88899 8.85312L 2.90048 8.854L 2.912 8.854L 2.912 8.554ZM 3.066 4.298L 3.05023 3.99841L 3.04936 3.99846L 3.066 4.298ZM 3.5 4.256L 3.54932 4.55192L 3.57018 4.54844L 3.59034 4.54207L 3.5 4.256ZM 4.41 3.752L 4.21473 3.52419L 4.21069 3.52778L 4.41 3.752ZM 4.284 1.89L 4.12494 2.14449L 4.13189 2.14858L 4.284 1.89ZM 2.002 1.694L 1.95268 1.39808L 1.702 1.43986L 1.702 1.694L 2.002 1.694ZM 2.002 4.312L 1.702 4.312L 1.702 4.612L 2.002 4.612L 2.002 4.312ZM 12.1885 2.954L 11.8965 2.88529L 11.8965 2.88529L 12.1885 2.954ZM 12.8745 1.358L 13.1183 1.53288L 13.1201 1.53039L 12.8745 1.358ZM 14.0225 0.35L 13.8884 0.0816626L 13.8862 0.082771L 14.0225 0.35ZM 17.3685 0.378L 17.226 0.641972L 17.226 0.641972L 17.3685 0.378ZM 18.5025 1.428L 18.2505 1.59077L 18.2529 1.59441L 18.5025 1.428ZM 19.1465 3.038L 18.8528 3.09937L 18.8538 3.10354L 19.1465 3.038ZM 18.4325 8.848L 18.1845 8.67924L 18.1841 8.6798L 18.4325 8.848ZM 13.9385 9.814L 13.796 10.078L 13.7982 10.0791L 13.9385 9.814ZM 12.7905 8.764L 12.5385 8.92677L 12.5409 8.93041L 12.7905 8.764ZM 12.1605 7.154L 12.4542 7.09264L 12.1605 7.154ZM 14.0365 6.426L 13.7377 6.45317L 13.7384 6.45987L 14.0365 6.426ZM 14.2745 7.504L 13.9924 7.60659L 13.9966 7.61691L 14.2745 7.504ZM 14.7785 8.218L 14.5874 8.44934L 14.5923 8.45321L 14.7785 8.218ZM 16.4725 8.288L 16.6286 8.54438L 16.6364 8.53928L 16.4725 8.288ZM 16.9905 7.658L 17.2624 7.78487L 17.2624 7.78487L 16.9905 7.658ZM 17.2565 6.608L 16.959 6.56919L 16.9584 6.57487L 17.2565 6.608ZM 17.2845 3.794L 16.9851 3.81441L 16.9858 3.82116L 17.2845 3.794ZM 17.0605 2.716L 16.7785 2.81856L 16.7814 2.82596L 17.0605 2.716ZM 16.5565 1.988L 16.3644 2.21854L 16.3703 2.22321L 16.5565 1.988ZM 14.3305 2.562L 14.0529 2.44823L 14.0529 2.44823L 14.3305 2.562ZM 25.2871 8.456L 25.2871 8.156L 24.9871 8.156L 24.9871 8.456L 25.2871 8.456ZM 26.8831 8.456L 26.8831 8.756L 27.1831 8.756L 27.1831 8.456L 26.8831 8.456ZM 26.8831 1.736L 27.1831 1.736L 27.1831 1.436L 26.8831 1.436L 26.8831 1.736ZM 25.5391 1.736L 25.5391 1.436L 25.2391 1.436L 25.2391 1.736L 25.5391 1.736ZM 25.5391 3.43L 25.5391 3.73L 25.8391 3.73L 25.8391 3.43L 25.5391 3.43ZM 23.9991 3.43L 23.6991 3.43L 23.6991 3.73L 23.9991 3.73L 23.9991 3.43ZM 23.9991 0.196L 23.9991 -0.104L 23.6991 -0.104L 23.6991 0.196L 23.9991 0.196ZM 31.6711 0.196L 31.9711 0.196L 31.9711 -0.104L 31.6711 -0.104L 31.6711 0.196ZM 31.6711 3.43L 31.6711 3.73L 31.9711 3.73L 31.9711 3.43L 31.6711 3.43ZM 30.1311 3.43L 29.8311 3.43L 29.8311 3.73L 30.1311 3.73L 30.1311 3.43ZM 30.1311 1.736L 30.4311 1.736L 30.4311 1.436L 30.1311 1.436L 30.1311 1.736ZM 28.8011 1.736L 28.8011 1.436L 28.5011 1.436L 28.5011 1.736L 28.8011 1.736ZM 28.8011 8.456L 28.5011 8.456L 28.5011 8.756L 28.8011 8.756L 28.8011 8.456ZM 30.3831 8.456L 30.6831 8.456L 30.6831 8.156L 30.3831 8.156L 30.3831 8.456ZM 30.3831 9.996L 30.3831 10.296L 30.6831 10.296L 30.6831 9.996L 30.3831 9.996ZM 25.2871 9.996L 24.9871 9.996L 24.9871 10.296L 25.2871 10.296L 25.2871 9.996ZM 37.9656 5.166L 37.9656 4.866L 37.6656 4.866L 37.6656 5.166L 37.9656 5.166ZM 42.0396 5.166L 42.3396 5.166L 42.3396 4.866L 42.0396 4.866L 42.0396 5.166ZM 42.0396 6.776L 42.0396 7.076L 42.3396 7.076L 42.3396 6.776L 42.0396 6.776ZM 37.9656 6.776L 37.6656 6.776L 37.6656 7.076L 37.9656 7.076L 37.9656 6.776ZM 55.3481 3.206L 55.0583 3.12796L 55.0558 3.13854L 55.3481 3.206ZM 55.0541 3.878L 55.2983 4.05241L 55.302 4.047L 55.0541 3.878ZM 54.5081 4.41L 54.6746 4.65971L 54.6815 4.65481L 54.5081 4.41ZM 53.6961 4.746L 53.6274 4.45397L 53.3961 4.5084L 53.3961 4.746L 53.6961 4.746ZM 53.6961 4.83L 53.3961 4.83L 53.3961 5.08414L 53.6468 5.12592L 53.6961 4.83ZM 54.4941 5.068L 54.3723 5.34214L 54.3723 5.34214L 54.4941 5.068ZM 55.1521 5.53L 55.3694 5.3231L 55.3694 5.3231L 55.1521 5.53ZM 55.5861 6.244L 55.3043 6.34732L 55.3076 6.35542L 55.5861 6.244ZM 55.4321 8.554L 55.6906 8.7064L 55.6922 8.70354L 55.4321 8.554ZM 54.5641 9.45L 54.4022 9.19742L 54.3992 9.19937L 54.5641 9.45ZM 53.3461 9.968L 53.2748 9.67661L 53.2748 9.67661L 53.3461 9.968ZM 50.5181 10.108L 50.5374 9.80848L 50.5281 9.80817L 50.5181 10.108ZM 49.6501 10.052L 49.6212 10.3506L 49.6221 10.3507L 49.6501 10.052ZM 48.8521 9.926L 48.5521 9.926L 48.5521 10.1647L 48.7847 10.2183L 48.8521 9.926ZM 48.8521 0.266L 48.8053 -0.0303289L 48.5521 0.00965242L 48.5521 0.266L 48.8521 0.266ZM 49.4541 0.182L 49.4184 -0.115866L 49.4169 -0.115683L 49.4541 0.182ZM 50.1961 0.112L 50.2175 0.411238L 50.2175 0.411238L 50.1961 0.112ZM 50.9941 0.0699999L 50.9841 -0.229834L 50.9838 -0.229822L 50.9941 0.0699999ZM 53.1501 0.168L 53.0987 0.463651L 53.1059 0.464727L 53.1501 0.168ZM 54.3121 0.532L 54.1721 0.797332L 54.1751 0.79887L 54.3121 0.532ZM 55.1381 1.274L 55.39 1.11102L 55.39 1.11102L 55.1381 1.274ZM 52.6181 8.47L 52.5454 8.17894L 52.5424 8.17972L 52.6181 8.47ZM 53.2061 8.218L 53.3727 8.46779L 53.3818 8.4612L 53.2061 8.218ZM 53.6121 7.77L 53.8718 7.92031L 53.8718 7.92031L 53.6121 7.77ZM 53.5841 6.412L 53.8317 6.24259L 53.8317 6.24259L 53.5841 6.412ZM 53.1081 6.006L 52.9688 6.27194L 52.9791 6.27686L 53.1081 6.006ZM 50.7001 5.768L 50.7001 5.468L 50.4001 5.468L 50.4001 5.768L 50.7001 5.768ZM 50.7001 8.47L 50.4001 8.47L 50.4001 8.67311L 50.5887 8.74854L 50.7001 8.47ZM 50.9241 8.512L 50.897 8.81077L 50.897 8.81077L 50.9241 8.512ZM 51.2461 8.54L 51.2212 8.83896L 51.2336 8.84L 51.2461 8.84L 51.2461 8.54ZM 51.6101 8.554L 51.5871 8.85312L 51.5986 8.854L 51.6101 8.854L 51.6101 8.554ZM 51.7641 4.298L 51.7484 3.99841L 51.7475 3.99846L 51.7641 4.298ZM 52.1981 4.256L 52.2474 4.55192L 52.2683 4.54844L 52.2885 4.54207L 52.1981 4.256ZM 53.1081 3.752L 52.9129 3.52419L 52.9088 3.52778L 53.1081 3.752ZM 52.9821 1.89L 52.8231 2.14449L 52.83 2.14858L 52.9821 1.89ZM 50.7001 1.694L 50.6508 1.39808L 50.4001 1.43986L 50.4001 1.694L 50.7001 1.694ZM 50.7001 4.312L 50.4001 4.312L 50.4001 4.612L 50.7001 4.612L 50.7001 4.312ZM 60.8867 2.954L 60.5946 2.88529L 60.5946 2.88529L 60.8867 2.954ZM 61.5727 1.358L 61.8164 1.53288L 61.8182 1.53039L 61.5727 1.358ZM 62.7207 0.35L 62.5865 0.0816626L 62.5843 0.082771L 62.7207 0.35ZM 66.0667 0.378L 65.9241 0.641972L 65.9241 0.641972L 66.0667 0.378ZM 67.2007 1.428L 66.9486 1.59077L 66.951 1.59441L 67.2007 1.428ZM 67.8447 3.038L 67.551 3.09937L 67.5519 3.10354L 67.8447 3.038ZM 67.1307 8.848L 66.8826 8.67924L 66.8822 8.6798L 67.1307 8.848ZM 62.6367 9.814L 62.4941 10.078L 62.4963 10.0791L 62.6367 9.814ZM 61.4887 8.764L 61.2366 8.92677L 61.239 8.93041L 61.4887 8.764ZM 60.8587 7.154L 61.1523 7.09264L 60.8587 7.154ZM 62.7347 6.426L 62.4358 6.45317L 62.4366 6.45987L 62.7347 6.426ZM 62.9727 7.504L 62.6905 7.60659L 62.6947 7.61691L 62.9727 7.504ZM 63.4767 8.218L 63.2855 8.44934L 63.2904 8.45321L 63.4767 8.218ZM 65.1707 8.288L 65.3267 8.54438L 65.3345 8.53928L 65.1707 8.288ZM 65.6887 7.658L 65.9605 7.78487L 65.9605 7.78487L 65.6887 7.658ZM 65.9547 6.608L 65.6571 6.56919L 65.6565 6.57487L 65.9547 6.608ZM 65.9827 3.794L 65.6833 3.81441L 65.6839 3.82116L 65.9827 3.794ZM 65.7587 2.716L 65.4766 2.81856L 65.4795 2.82596L 65.7587 2.716ZM 65.2547 1.988L 65.0625 2.21854L 65.0684 2.22321L 65.2547 1.988ZM 63.0287 2.562L 62.7511 2.44823L 62.7511 2.44823L 63.0287 2.562ZM 73.9852 8.456L 73.9852 8.156L 73.6852 8.156L 73.6852 8.456L 73.9852 8.456ZM 75.5812 8.456L 75.5812 8.756L 75.8812 8.756L 75.8812 8.456L 75.5812 8.456ZM 75.5812 1.736L 75.8812 1.736L 75.8812 1.436L 75.5812 1.436L 75.5812 1.736ZM 74.2372 1.736L 74.2372 1.436L 73.9372 1.436L 73.9372 1.736L 74.2372 1.736ZM 74.2372 3.43L 74.2372 3.73L 74.5372 3.73L 74.5372 3.43L 74.2372 3.43ZM 72.6972 3.43L 72.3972 3.43L 72.3972 3.73L 72.6972 3.73L 72.6972 3.43ZM 72.6972 0.196L 72.6972 -0.104L 72.3972 -0.104L 72.3972 0.196L 72.6972 0.196ZM 80.3692 0.196L 80.6692 0.196L 80.6692 -0.104L 80.3692 -0.104L 80.3692 0.196ZM 80.3692 3.43L 80.3692 3.73L 80.6692 3.73L 80.6692 3.43L 80.3692 3.43ZM 78.8292 3.43L 78.5292 3.43L 78.5292 3.73L 78.8292 3.73L 78.8292 3.43ZM 78.8292 1.736L 79.1292 1.736L 79.1292 1.436L 78.8292 1.436L 78.8292 1.736ZM 77.4992 1.736L 77.4992 1.436L 77.1992 1.436L 77.1992 1.736L 77.4992 1.736ZM 77.4992 8.456L 77.1992 8.456L 77.1992 8.756L 77.4992 8.756L 77.4992 8.456ZM 79.0812 8.456L 79.3812 8.456L 79.3812 8.156L 79.0812 8.156L 79.0812 8.456ZM 79.0812 9.996L 79.0812 10.296L 79.3812 10.296L 79.3812 9.996L 79.0812 9.996ZM 73.9852 9.996L 73.6852 9.996L 73.6852 10.296L 73.9852 10.296L 73.9852 9.996ZM 0 25.706L 0 25.406L -0.3 25.406L -0.3 25.706L 0 25.706ZM 1.54 25.706L 1.84 25.706L 1.84 25.406L 1.54 25.406L 1.54 25.706ZM 1.54 27.274L 1.24 27.274L 1.24 27.4902L 1.44513 27.5586L 1.54 27.274ZM 1.61 27.302L 1.47583 27.5703L 1.49675 27.5808L 1.51904 27.5879L 1.61 27.302ZM 2.254 27.47L 2.19281 27.7637L 2.19517 27.7642L 2.254 27.47ZM 3.654 27.456L 3.57827 27.1657L 3.57506 27.1666L 3.654 27.456ZM 4.228 27.19L 4.40365 27.4332L 4.40365 27.4332L 4.228 27.19ZM 4.62 26.728L 4.35693 26.5833L 4.35167 26.5938L 4.62 26.728ZM 4.592 25.356L 4.33475 25.5103L 4.33936 25.518L 4.34441 25.5254L 4.592 25.356ZM 4.13 24.936L 3.9907 25.2019L 4.00102 25.2069L 4.13 24.936ZM 3.458 24.726L 3.41238 25.0225L 3.41404 25.0228L 3.458 24.726ZM 2.716 24.656L 2.72711 24.356L 2.716 24.356L 2.716 24.656ZM 2.296 24.656L 1.996 24.656L 1.996 24.956L 2.296 24.956L 2.296 24.656ZM 2.296 23.158L 2.296 22.858L 1.996 22.858L 1.996 23.158L 2.296 23.158ZM 3.304 23.102L 3.2526 22.8064L 3.25033 22.8068L 3.304 23.102ZM 4.298 22.528L 4.54318 22.7011L 4.54762 22.6944L 4.298 22.528ZM 4.34 21.352L 4.07478 21.4924L 4.07853 21.4991L 4.34 21.352ZM 3.99 20.974L 3.81988 21.2214L 3.831 21.2284L 3.99 20.974ZM 1.68 20.82L 1.59758 20.5315L 1.38 20.5937L 1.38 20.82L 1.68 20.82ZM 1.68 22.262L 1.68 22.562L 1.98 22.562L 1.98 22.262L 1.68 22.262ZM 0.14 22.262L -0.16 22.262L -0.16 22.562L 0.14 22.562L 0.14 22.262ZM 0.14 19.602L 0.0209266 19.3266L -0.16 19.4049L -0.16 19.602L 0.14 19.602ZM 1.47 19.21L 1.53079 19.5038L 1.53455 19.503L 1.47 19.21ZM 4.41 19.154L 4.34712 19.4474L 4.35387 19.4487L 4.41 19.154ZM 5.46 19.56L 5.2989 19.8132L 5.30451 19.8166L 5.46 19.56ZM 6.202 20.33L 5.94151 20.4789L 5.94342 20.4821L 6.202 20.33ZM 6.09 22.85L 5.84035 22.6836L 5.83765 22.6878L 6.09 22.85ZM 4.858 23.718L 4.76453 23.4329L 4.558 23.5006L 4.558 23.718L 4.858 23.718ZM 4.858 23.788L 4.558 23.788L 4.558 24.0205L 4.78317 24.0785L 4.858 23.788ZM 6.468 27.526L 6.72964 27.6728L 6.72964 27.6728L 6.468 27.526ZM 5.614 28.478L 5.78649 28.7235L 5.78776 28.7226L 5.614 28.478ZM 4.41 29.01L 4.33863 28.7186L 4.33307 28.72L 4.41 29.01ZM 1.302 29.024L 1.36486 28.7306L 1.36083 28.7298L 1.302 29.024ZM 0 28.618L -0.3 28.618L -0.3 28.8078L -0.128426 28.8891L 0 28.618ZM 17.0605 26.826L 17.346 26.7339L 17.279 26.526L 17.0605 26.526L 17.0605 26.826ZM 14.1345 26.826L 14.1345 26.526L 13.9134 26.526L 13.848 26.7373L 14.1345 26.826ZM 13.4625 28.996L 13.4625 29.296L 13.6837 29.296L 13.7491 29.0847L 13.4625 28.996ZM 11.5445 28.996L 11.259 28.9038L 11.1324 29.296L 11.5445 29.296L 11.5445 28.996ZM 14.7085 19.196L 14.7085 18.896L 14.4901 18.896L 14.423 19.1038L 14.7085 19.196ZM 16.6265 19.196L 16.9121 19.1042L 16.8452 18.896L 16.6265 18.896L 16.6265 19.196ZM 19.7765 28.996L 19.7765 29.296L 20.1881 29.296L 20.0621 28.9042L 19.7765 28.996ZM 17.7605 28.996L 17.475 29.0881L 17.5421 29.296L 17.7605 29.296L 17.7605 28.996ZM 14.5825 25.286L 14.2951 25.2L 14.1797 25.586L 14.5825 25.586L 14.5825 25.286ZM 16.6825 25.286L 16.6825 25.586L 17.0871 25.586L 16.9696 25.1989L 16.6825 25.286ZM 15.6885 22.01L 15.9756 21.9229L 15.911 21.71L 15.6885 21.71L 15.6885 22.01ZM 15.5625 22.01L 15.5625 21.71L 15.3391 21.71L 15.2751 21.924L 15.5625 22.01ZM 29.3331 20.904L 29.6331 20.904L 29.6331 20.604L 29.3331 20.604L 29.3331 20.904ZM 26.3371 20.904L 26.3371 20.604L 26.0371 20.604L 26.0371 20.904L 26.3371 20.904ZM 26.3371 28.996L 26.3371 29.296L 26.6371 29.296L 26.6371 28.996L 26.3371 28.996ZM 24.4191 28.996L 24.1191 28.996L 24.1191 29.296L 24.4191 29.296L 24.4191 28.996ZM 24.4191 19.196L 24.4191 18.896L 24.1191 18.896L 24.1191 19.196L 24.4191 19.196ZM 31.2511 19.196L 31.5511 19.196L 31.5511 18.896L 31.2511 18.896L 31.2511 19.196ZM 31.2511 28.996L 31.2511 29.296L 31.5511 29.296L 31.5511 28.996L 31.2511 28.996ZM 29.3331 28.996L 29.0331 28.996L 29.0331 29.296L 29.3331 29.296L 29.3331 28.996ZM 39.9676 24.348L 39.6882 24.4573L 39.7628 24.648L 39.9676 24.648L 39.9676 24.348ZM 40.6396 24.348L 40.6396 24.648L 40.8696 24.648L 40.9293 24.4259L 40.6396 24.348ZM 42.0256 19.196L 42.0256 18.896L 41.7956 18.896L 41.7359 19.1181L 42.0256 19.196ZM 43.9996 19.196L 44.2862 19.2847L 44.4065 18.896L 43.9996 18.896L 43.9996 19.196ZM 41.7596 26.434L 42.0455 26.525L 42.0462 26.5227L 41.7596 26.434ZM 41.3256 27.554L 41.0543 27.4259L 41.0527 27.4293L 41.3256 27.554ZM 40.7656 28.394L 40.5492 28.1862L 40.549 28.1864L 40.7656 28.394ZM 39.9816 28.912L 40.0916 29.1911L 40.0916 29.1911L 39.9816 28.912ZM 38.1336 29.024L 38.0699 29.3172L 38.0699 29.3172L 38.1336 29.024ZM 37.4336 28.73L 37.1475 28.6398L 37.0759 28.8668L 37.2807 28.9881L 37.4336 28.73ZM 37.9236 27.176L 38.0578 26.9077L 37.7432 26.7504L 37.6375 27.0858L 37.9236 27.176ZM 38.3576 27.344L 38.2901 27.6364L 38.2947 27.6373L 38.3576 27.344ZM 39.6316 27.05L 39.4011 26.8579L 39.3962 26.8638L 39.3916 26.87L 39.6316 27.05ZM 39.8696 26.63L 39.59 26.5213L 39.59 26.5213L 39.8696 26.63ZM 40.0516 26.056L 40.3419 26.1317L 40.4399 25.756L 40.0516 25.756L 40.0516 26.056ZM 38.6376 26.056L 38.359 26.1674L 38.4345 26.356L 38.6376 26.356L 38.6376 26.056ZM 35.8936 19.196L 35.8936 18.896L 35.4505 18.896L 35.615 19.3074L 35.8936 19.196ZM 37.9516 19.196L 38.231 19.0867L 38.1564 18.896L 37.9516 18.896L 37.9516 19.196ZM 54.2001 25.706L 54.2001 25.406L 53.9001 25.406L 53.9001 25.706L 54.2001 25.706ZM 55.7401 25.706L 56.0401 25.706L 56.0401 25.406L 55.7401 25.406L 55.7401 25.706ZM 55.7401 28.506L 55.9152 28.7496L 56.0401 28.6598L 56.0401 28.506L 55.7401 28.506ZM 54.5921 29.01L 54.5166 28.7196L 54.5152 28.72L 54.5921 29.01ZM 51.4141 28.926L 51.3178 29.2102L 51.3236 29.212L 51.4141 28.926ZM 49.9581 28.044L 49.7484 28.2585L 49.7509 28.2609L 49.9581 28.044ZM 48.9501 26.462L 48.6702 26.57L 48.6707 26.5713L 48.9501 26.462ZM 48.9921 21.688L 48.7178 21.5665L 48.717 21.5684L 48.9921 21.688ZM 50.0981 20.12L 50.2957 20.3458L 50.2983 20.3434L 50.0981 20.12ZM 51.5961 19.266L 51.6837 19.553L 51.6881 19.5516L 51.5961 19.266ZM 54.6341 19.14L 54.563 19.4315L 54.5646 19.4318L 54.6341 19.14ZM 55.6001 19.462L 55.9001 19.462L 55.9001 19.2735L 55.7303 19.1917L 55.6001 19.462ZM 55.6001 22.374L 55.6001 22.674L 55.9001 22.674L 55.9001 22.374L 55.6001 22.374ZM 54.0601 22.374L 53.7601 22.374L 53.7601 22.674L 54.0601 22.674L 54.0601 22.374ZM 54.0601 20.778L 54.3601 20.778L 54.3601 20.5225L 54.1079 20.4818L 54.0601 20.778ZM 52.1421 20.918L 52.2593 21.1942L 52.2632 21.1925L 52.1421 20.918ZM 51.3301 21.534L 51.0997 21.3419L 51.0997 21.3419L 51.3301 21.534ZM 50.7841 22.598L 51.0706 22.6871L 51.0711 22.6853L 50.7841 22.598ZM 50.7701 25.482L 50.4819 25.5653L 50.4824 25.567L 50.7701 25.482ZM 52.1561 27.246L 52.0219 27.5144L 52.028 27.5173L 52.1561 27.246ZM 54.2001 27.4L 54.2571 27.6945L 54.5001 27.6475L 54.5001 27.4L 54.2001 27.4ZM 61.8107 27.456L 61.8107 27.156L 61.5107 27.156L 61.5107 27.456L 61.8107 27.456ZM 63.4067 27.456L 63.4067 27.756L 63.7067 27.756L 63.7067 27.456L 63.4067 27.456ZM 63.4067 20.736L 63.7067 20.736L 63.7067 20.436L 63.4067 20.436L 63.4067 20.736ZM 62.0627 20.736L 62.0627 20.436L 61.7627 20.436L 61.7627 20.736L 62.0627 20.736ZM 62.0627 22.43L 62.0627 22.73L 62.3627 22.73L 62.3627 22.43L 62.0627 22.43ZM 60.5227 22.43L 60.2227 22.43L 60.2227 22.73L 60.5227 22.73L 60.5227 22.43ZM 60.5227 19.196L 60.5227 18.896L 60.2227 18.896L 60.2227 19.196L 60.5227 19.196ZM 68.1947 19.196L 68.4947 19.196L 68.4947 18.896L 68.1947 18.896L 68.1947 19.196ZM 68.1947 22.43L 68.1947 22.73L 68.4947 22.73L 68.4947 22.43L 68.1947 22.43ZM 66.6547 22.43L 66.3547 22.43L 66.3547 22.73L 66.6547 22.73L 66.6547 22.43ZM 66.6547 20.736L 66.9547 20.736L 66.9547 20.436L 66.6547 20.436L 66.6547 20.736ZM 65.3247 20.736L 65.3247 20.436L 65.0247 20.436L 65.0247 20.736L 65.3247 20.736ZM 65.3247 27.456L 65.0247 27.456L 65.0247 27.756L 65.3247 27.756L 65.3247 27.456ZM 66.9067 27.456L 67.2067 27.456L 67.2067 27.156L 66.9067 27.156L 66.9067 27.456ZM 66.9067 28.996L 66.9067 29.296L 67.2067 29.296L 67.2067 28.996L 66.9067 28.996ZM 61.8107 28.996L 61.5107 28.996L 61.5107 29.296L 61.8107 29.296L 61.8107 28.996ZM 78.1152 23.816L 77.8163 23.7897L 77.8152 23.8028L 77.8152 23.816L 78.1152 23.816ZM 78.2272 22.542L 78.526 22.5683L 78.5547 22.242L 78.2272 22.242L 78.2272 22.542ZM 78.1572 22.542L 78.1572 22.242L 77.9607 22.242L 77.8822 22.4221L 78.1572 22.542ZM 77.5832 23.858L 77.8472 24.0004L 77.8532 23.9894L 77.8582 23.9779L 77.5832 23.858ZM 74.8112 28.996L 74.8112 29.296L 74.9902 29.296L 75.0752 29.1384L 74.8112 28.996ZM 73.0332 28.996L 72.7332 28.996L 72.7332 29.296L 73.0332 29.296L 73.0332 28.996ZM 73.0332 19.196L 73.0332 18.896L 72.7332 18.896L 72.7332 19.196L 73.0332 19.196ZM 74.9512 19.196L 75.2512 19.196L 75.2512 18.896L 74.9512 18.896L 74.9512 19.196ZM 74.9512 24.278L 75.2495 24.3097L 75.2512 24.2939L 75.2512 24.278L 74.9512 24.278ZM 74.8112 25.594L 74.5129 25.5623L 74.4776 25.894L 74.8112 25.894L 74.8112 25.594ZM 74.8952 25.594L 74.8952 25.894L 75.0904 25.894L 75.1694 25.7156L 74.8952 25.594ZM 75.4972 24.236L 75.2343 24.0914L 75.2281 24.1027L 75.2229 24.1144L 75.4972 24.236ZM 78.2692 19.196L 78.2692 18.896L 78.0918 18.896L 78.0063 19.0514L 78.2692 19.196ZM 80.0332 19.196L 80.3332 19.196L 80.3332 18.896L 80.0332 18.896L 80.0332 19.196ZM 80.0332 28.996L 80.0332 29.296L 80.3332 29.296L 80.3332 28.996L 80.0332 28.996ZM 78.1152 28.996L 77.8152 28.996L 77.8152 29.296L 78.1152 29.296L 78.1152 28.996ZM 90.4297 23.774L 90.1297 23.7602L 90.1297 23.774L 90.4297 23.774ZM 90.4997 22.248L 90.7994 22.2617L 90.8138 21.948L 90.4997 21.948L 90.4997 22.248ZM 90.4157 22.248L 90.4157 21.948L 90.2476 21.948L 90.1598 22.0914L 90.4157 22.248ZM 88.8477 24.81L 88.8477 25.11L 89.0158 25.11L 89.1036 24.9666L 88.8477 24.81ZM 88.5117 24.81L 88.259 24.9716L 88.3474 25.11L 88.5117 25.11L 88.5117 24.81ZM 86.8737 22.248L 87.1265 22.0864L 87.038 21.948L 86.8737 21.948L 86.8737 22.248ZM 86.8037 22.248L 86.8037 21.948L 86.4848 21.948L 86.5043 22.2663L 86.8037 22.248ZM 86.8877 23.62L 87.1877 23.62L 87.1877 23.6108L 87.1872 23.6017L 86.8877 23.62ZM 86.8877 28.996L 86.8877 29.296L 87.1877 29.296L 87.1877 28.996L 86.8877 28.996ZM 85.0677 28.996L 84.7677 28.996L 84.7677 29.296L 85.0677 29.296L 85.0677 28.996ZM 85.0677 19.196L 85.0677 18.896L 84.7677 18.896L 84.7677 19.196L 85.0677 19.196ZM 87.0137 19.196L 87.2689 19.0382L 87.1809 18.896L 87.0137 18.896L 87.0137 19.196ZM 88.6937 21.912L 88.4386 22.0698L 88.5265 22.212L 88.6937 22.212L 88.6937 21.912ZM 88.7497 21.912L 88.7497 22.212L 88.9176 22.212L 89.0054 22.0689L 88.7497 21.912ZM 90.4157 19.196L 90.4157 18.896L 90.2478 18.896L 90.16 19.0391L 90.4157 19.196ZM 92.3477 19.196L 92.6477 19.196L 92.6477 18.896L 92.3477 18.896L 92.3477 19.196ZM 92.3477 28.996L 92.3477 29.296L 92.6477 29.296L 92.6477 28.996L 92.3477 28.996ZM 90.4297 28.996L 90.1297 28.996L 90.1297 29.296L 90.4297 29.296L 90.4297 28.996ZM 6.448 2.478C 6.44867 2.70061 6.42122 2.9042 6.36032 3.12801L 6.93969 3.28399C 7.00945 3.02246 7.04733 2.74072 7.048 2.478L 6.448 2.478ZM 6.35768 3.13854C 6.30919 3.35441 6.23351 3.52742 6.10813 3.709L 6.60387 4.047C 6.75849 3.81792 6.87881 3.54292 6.94232 3.27346L 6.35768 3.13854ZM 6.11188 3.70363C 5.98836 3.87861 5.84203 4.02079 5.63659 4.16519L 5.98341 4.65481C 6.22597 4.48187 6.44364 4.26939 6.60012 4.05237L 6.11188 3.70363ZM 5.64359 4.16038C 5.44477 4.29466 5.22333 4.38579 4.92929 4.45397L 5.06671 5.03802C 5.40734 4.95688 5.72723 4.82401 5.97641 4.65961L 5.64359 4.16038ZM 4.698 4.746L 4.698 4.83L 5.298 4.83L 5.298 4.746L 4.698 4.746ZM 4.94868 5.12592C 5.21034 5.16894 5.43999 5.23739 5.67416 5.34214L 5.91784 4.79386C 5.64801 4.67461 5.34566 4.5844 5.04732 4.53408L 4.94868 5.12592ZM 5.67416 5.34214C 5.90019 5.44106 6.07156 5.56132 6.23676 5.7369L 6.67124 5.3231C 6.4631 5.10668 6.19581 4.91894 5.91784 4.79386L 5.67416 5.34214ZM 6.23676 5.7369C 6.40249 5.90841 6.51504 6.09417 6.60634 6.34728L 7.16966 6.14072C 7.05562 5.83383 6.87884 5.54359 6.67124 5.3231L 6.23676 5.7369ZM 6.60946 6.35542C 6.71119 6.60517 6.75705 6.88042 6.756 7.238L 7.356 7.238C 7.35495 6.83025 7.28881 6.44283 7.16654 6.13258L 6.60946 6.35542ZM 6.756 7.238C 6.75816 7.70609 6.67017 8.06914 6.47393 8.40446L 6.99407 8.70354C 7.22717 8.29219 7.35384 7.77791 7.356 7.238L 6.756 7.238ZM 6.47559 8.4016C 6.28072 8.73616 6.04005 8.98447 5.7041 9.19744L 6.0279 9.70256C 6.41995 9.44887 6.75794 9.09984 6.99241 8.7064L 6.47559 8.4016ZM 5.70112 9.19937C 5.36961 9.41892 5.01064 9.57134 4.57664 9.67661L 4.71936 10.2594C 5.20003 10.1407 5.65305 9.94775 6.03089 9.70062L 5.70112 9.19937ZM 4.57664 9.67661C 4.13719 9.7848 3.70161 9.83652 3.234 9.836L 3.234 10.436C 3.73706 10.4355 4.24414 10.3752 4.71936 10.2594L 4.57664 9.67661ZM 3.234 9.836C 3.07533 9.836 2.87 9.836 2.618 9.836L 2.618 10.436C 2.87 10.436 3.07533 10.436 3.234 10.436L 3.234 9.836ZM 2.618 9.836C 2.38059 9.83605 2.12425 9.82704 1.83931 9.80862L 1.80069 10.4074C 2.09441 10.4263 2.37007 10.436 2.618 10.436L 2.618 9.836ZM 1.82999 9.80817C 1.55466 9.79902 1.27433 9.78093 0.980002 9.75331L 0.923998 10.3507C 1.22701 10.3791 1.52534 10.3983 1.81001 10.4078L 1.82999 9.80817ZM 0.980897 9.7534C 0.700527 9.7264 0.453825 9.6875 0.221458 9.63368L 0.0865422 10.2183C 0.339508 10.2765 0.624806 10.3216 0.923103 10.3506L 0.980897 9.7534ZM 0.454 9.926L 0.454 0.266L -0.146 0.266L -0.146 9.926L 0.454 9.926ZM 0.20079 0.562329C 0.375459 0.534737 0.571335 0.50741 0.79321 0.479684L 0.71879 -0.115683C 0.492665 -0.0874103 0.287208 -0.0587377 0.10721 -0.0303289L 0.20079 0.562329ZM 0.791744 0.479863C 1.0213 0.452292 1.26144 0.429641 1.51937 0.411238L 1.47663 -0.187237C 1.21189 -0.168309 0.95737 -0.144293 0.720256 -0.115863L 0.791744 0.479863ZM 1.51937 0.411238C 1.77791 0.392758 2.03839 0.379049 2.30634 0.369822L 2.28566 -0.229822C 2.01228 -0.220382 1.74076 -0.206091 1.47663 -0.187237L 1.51937 0.411238ZM 2.30599 0.369833C 2.58354 0.360572 2.85387 0.355989 3.122 0.356L 3.122 -0.244C 2.84879 -0.243989 2.56846 -0.239239 2.28601 -0.229834L 2.30599 0.369833ZM 3.122 0.356C 3.56674 0.355735 3.98434 0.390875 4.4006 0.463563L 4.5034 -0.127564C 4.06099 -0.204209 3.59193 -0.243735 3.122 -0.244L 3.122 0.356ZM 4.40781 0.464727C 4.82353 0.525724 5.16267 0.631612 5.47397 0.797315L 5.75403 0.266684C 5.39333 0.0777213 4.95781 -0.0590575 4.49619 -0.128728L 4.40781 0.464727ZM 5.47696 0.79887C 5.78916 0.956401 6.0065 1.15144 6.18813 1.43697L 6.69187 1.11102C 6.46284 0.761889 6.1295 0.462265 5.75104 0.26513L 5.47696 0.79887ZM 6.18813 1.43697C 6.35425 1.69371 6.448 2.03424 6.448 2.478L 7.048 2.478C 7.048 1.9511 6.93642 1.48896 6.69187 1.11102L 6.18813 1.43697ZM 3.248 8.854C 3.49997 8.85342 3.76192 8.82061 3.99573 8.76029L 3.84427 8.17972C 3.64874 8.23139 3.46269 8.25458 3.248 8.254L 3.248 8.854ZM 3.99276 8.76104C 4.23977 8.6983 4.48289 8.59378 4.67441 8.46761L 4.34159 7.96838C 4.19711 8.06622 4.04823 8.1297 3.84724 8.17896L 3.99276 8.76104ZM 4.68365 8.4612C 4.87606 8.32022 5.05365 8.1242 5.17363 7.92031L 4.65437 7.61969C 4.56902 7.77046 4.47594 7.87312 4.33235 7.9748L 4.68365 8.4612ZM 5.17363 7.92031C 5.29501 7.70457 5.36585 7.41854 5.368 7.14L 4.768 7.14C 4.77015 7.34679 4.73832 7.48076 4.65437 7.61969L 5.17363 7.92031ZM 5.368 7.14C 5.368 6.79663 5.30092 6.48715 5.13359 6.24259L 4.63841 6.5814C 4.71375 6.69152 4.768 6.86737 4.768 7.14L 5.368 7.14ZM 5.13359 6.24259C 4.98775 6.03409 4.76923 5.84763 4.53898 5.73514L 4.28102 6.27686C 4.44277 6.35104 4.54158 6.43525 4.63841 6.58141L 5.13359 6.24259ZM 4.5492 5.74025C 4.32695 5.62541 4.05491 5.54411 3.78639 5.51198L 3.71761 6.10802C 3.93442 6.13189 4.10105 6.18126 4.2708 6.27175L 4.5492 5.74025ZM 3.78639 5.51198C 3.53518 5.48312 3.27531 5.46812 3.024 5.468L 3.024 6.068C 3.25802 6.06788 3.48349 6.08088 3.71761 6.10802L 3.78639 5.51198ZM 3.024 5.468L 2.002 5.468L 2.002 6.068L 3.024 6.068L 3.024 5.468ZM 1.702 5.768L 1.702 8.47L 2.302 8.47L 2.302 5.768L 1.702 5.768ZM 1.89058 8.74854C 1.97981 8.78423 2.09095 8.80096 2.19884 8.81077L 2.25316 8.21323C 2.20782 8.20917 2.17756 8.20524 2.14829 8.19964C 2.12236 8.19501 2.10663 8.18819 2.11342 8.19146L 1.89058 8.74854ZM 2.19884 8.81077C 2.30209 8.82015 2.41055 8.82959 2.52309 8.83896L 2.57291 8.24104C 2.46145 8.23175 2.35524 8.22251 2.25316 8.21323L 2.19884 8.81077ZM 2.548 8.84C 2.66357 8.83994 2.77339 8.84417 2.88899 8.85312L 2.93501 8.25488C 2.80794 8.24516 2.6751 8.24006 2.548 8.24L 2.548 8.84ZM 2.912 8.854C 3.04267 8.854 3.15467 8.854 3.248 8.854L 3.248 8.254C 3.15467 8.254 3.04267 8.254 2.912 8.254L 2.912 8.854ZM 2.618 4.612C 2.75335 4.61196 2.91101 4.60705 3.08264 4.59754L 3.04936 3.99846C 2.88499 4.00762 2.74398 4.01204 2.618 4.012L 2.618 4.612ZM 3.08177 4.59759C 3.26567 4.58783 3.42713 4.5721 3.54932 4.55192L 3.45068 3.96008C 3.34887 3.97723 3.221 3.9895 3.05023 3.99841L 3.08177 4.59759ZM 3.59034 4.54207C 3.9731 4.41963 4.33139 4.22082 4.60931 3.97622L 4.21069 3.52778C 3.98461 3.73118 3.73623 3.86837 3.40966 3.96993L 3.59034 4.54207ZM 4.60524 3.97978C 4.9373 3.69515 5.102 3.31584 5.102 2.87L 4.502 2.87C 4.502 3.15216 4.40536 3.36085 4.21476 3.52422L 4.60524 3.97978ZM 5.102 2.87C 5.102 2.59039 5.04835 2.3331 4.92058 2.11589L 4.40342 2.42011C 4.46232 2.52024 4.502 2.66427 4.502 2.87L 5.102 2.87ZM 4.92058 2.11589C 4.80593 1.92574 4.62626 1.74607 4.43611 1.63142L 4.13189 2.14858C 4.25907 2.2206 4.3314 2.29293 4.40342 2.42011L 4.92058 2.11589ZM 4.443 1.6356C 4.2679 1.52787 4.04346 1.4426 3.82213 1.3993L 3.70987 1.9887C 3.88054 2.02006 4.00144 2.06546 4.125 2.1444L 4.443 1.6356ZM 3.82213 1.3993C 3.6117 1.35958 3.37826 1.33831 3.15 1.338L 3.15 1.938C 3.35107 1.93769 3.5283 1.95375 3.70987 1.9887L 3.82213 1.3993ZM 3.15 1.338C 2.90421 1.33802 2.6734 1.34283 2.46438 1.35231L 2.49162 1.95169C 2.69327 1.9425 2.91046 1.93798 3.15 1.938L 3.15 1.338ZM 2.46438 1.35231C 2.25267 1.362 2.07613 1.37773 1.95268 1.39808L 2.05132 1.98992C 2.15187 1.97293 2.29267 1.96067 2.49162 1.95169L 2.46438 1.35231ZM 1.702 1.694L 1.702 4.312L 2.302 4.312L 2.302 1.694L 1.702 1.694ZM 2.002 4.612L 2.618 4.612L 2.618 4.012L 2.002 4.012L 2.002 4.612ZM 12.2645 5.096C 12.2641 4.31829 12.335 3.63872 12.4806 3.02271L 11.8965 2.88529C 11.7434 3.53861 11.6649 4.28704 11.6645 5.096L 12.2645 5.096ZM 12.4806 3.02271C 12.6228 2.41328 12.8277 1.93487 13.1183 1.53287L 12.6308 1.18313C 12.3053 1.6398 12.053 2.22538 11.8965 2.88529L 12.4806 3.02271ZM 13.1201 1.53039C 13.4058 1.11966 13.7336 0.831581 14.1589 0.617228L 13.8862 0.082771C 13.3968 0.335085 12.9592 0.719005 12.629 1.18561L 13.1201 1.53039ZM 14.1567 0.618328C 14.5884 0.399784 15.0667 0.29834 15.6605 0.3L 15.6605 -0.3C 15.0037 -0.29834 14.39 -0.166451 13.8884 0.0816715L 14.1567 0.618328ZM 15.6605 0.3C 16.2999 0.298223 16.7972 0.407141 17.226 0.641972L 17.5111 0.114029C 17.0066 -0.155141 16.3651 -0.298223 15.6605 -0.3L 15.6605 0.3ZM 17.226 0.641972C 17.6606 0.873981 17.9835 1.17295 18.2505 1.59076L 18.7545 1.26524C 18.4429 0.787047 18.0098 0.386018 17.5111 0.114028L 17.226 0.641972ZM 18.2529 1.59441C 18.5357 2.01566 18.7287 2.49939 18.8529 3.09936L 19.4402 2.97664C 19.3031 2.32595 19.0667 1.73634 18.7521 1.26159L 18.2529 1.59441ZM 18.8538 3.10354C 18.9904 3.71142 19.0569 4.36458 19.0565 5.096L 19.6565 5.096C 19.6561 4.33409 19.5827 3.61525 19.4393 2.97246L 18.8538 3.10354ZM 19.0565 5.096C 19.0565 6.65799 18.7544 7.84163 18.1845 8.67924L 18.6806 9.01676C 19.3426 8.0437 19.6565 6.72601 19.6565 5.096L 19.0565 5.096ZM 18.1841 8.6798C 17.6422 9.48021 16.8193 9.892 15.6605 9.892L 15.6605 10.492C 16.9844 10.492 18.0096 10.0078 18.6809 9.0162L 18.1841 8.6798ZM 15.6605 9.892C 15.0209 9.89375 14.5178 9.78434 14.0789 9.54886L 13.7982 10.0791C 14.3112 10.3477 14.9562 10.4903 15.6605 10.492L 15.6605 9.892ZM 14.0811 9.55003C 13.6457 9.31749 13.3169 9.01668 13.0401 8.59759L 12.5409 8.93041C 12.8615 9.40732 13.298 9.80651 13.796 10.078L 14.0811 9.55003ZM 13.0425 8.60124C 12.7682 8.17928 12.5787 7.69369 12.4542 7.09264L 11.8669 7.21536C 12.0037 7.86497 12.2342 8.45272 12.5385 8.92676L 13.0425 8.60124ZM 12.4542 7.09264C 12.3265 6.48369 12.2642 5.82843 12.2645 5.096L 11.6645 5.096C 11.6649 5.8569 11.7333 6.57364 11.8669 7.21536L 12.4542 7.09264ZM 13.6805 5.096C 13.6806 5.57831 13.6999 6.03523 13.7378 6.45316L 14.3353 6.39884C 14.2985 5.99544 14.2805 5.56569 14.2805 5.096L 13.6805 5.096ZM 13.7384 6.45987C 13.7873 6.88601 13.8745 7.27978 13.9926 7.60652L 14.5565 7.40148C 14.4506 7.11222 14.3791 6.78732 14.3346 6.39213L 13.7384 6.45987ZM 13.9966 7.61691C 14.1326 7.94657 14.3438 8.24461 14.5875 8.44929L 14.9696 7.98671C 14.7839 7.83672 14.6591 7.65877 14.5525 7.39109L 13.9966 7.61691ZM 14.5923 8.45321C 14.8824 8.68285 15.2477 8.784 15.6605 8.784L 15.6605 8.184C 15.3453 8.184 15.1227 8.10781 14.9647 7.98279L 14.5923 8.45321ZM 15.6605 8.784C 16.0261 8.784 16.3547 8.71091 16.6285 8.54426L 16.3165 8.03174C 16.161 8.12642 15.9483 8.184 15.6605 8.184L 15.6605 8.784ZM 16.6364 8.53928C 16.8873 8.3715 17.1137 8.09796 17.2624 7.78487L 16.7187 7.53113C 16.6061 7.77804 16.4871 7.9245 16.3086 8.03672L 16.6364 8.53928ZM 17.2624 7.78487C 17.4038 7.47872 17.5051 7.08153 17.5547 6.64113L 16.9584 6.57487C 16.9147 6.97447 16.8386 7.27728 16.7187 7.53113L 17.2624 7.78487ZM 17.554 6.6468C 17.6112 6.20641 17.6404 5.68299 17.6405 5.096L 17.0405 5.096C 17.0406 5.66634 17.0138 6.15093 16.9591 6.5692L 17.554 6.6468ZM 17.6405 5.096C 17.6405 4.63222 17.6212 4.18463 17.5833 3.76684L 16.9858 3.82116C 17.0225 4.2247 17.0406 4.64511 17.0405 5.096L 17.6405 5.096ZM 17.5838 3.77359C 17.5537 3.34252 17.4693 2.93819 17.3397 2.60604L 16.7814 2.82596C 16.8944 3.10981 16.9593 3.42415 16.9852 3.81441L 17.5838 3.77359ZM 17.3425 2.61348C 17.215 2.27022 16.9993 1.96011 16.7427 1.75279L 16.3703 2.22321C 16.5617 2.37056 16.682 2.54578 16.7786 2.81852L 17.3425 2.61348ZM 16.7486 1.75753C 16.457 1.51457 16.084 1.408 15.6605 1.408L 15.6605 2.008C 15.9838 2.008 16.208 2.08809 16.3645 2.21847L 16.7486 1.75753ZM 15.6605 1.408C 15.2959 1.41042 14.9395 1.50432 14.6759 1.66906C 14.415 1.84144 14.1883 2.1258 14.0529 2.44823L 14.6081 2.67577C 14.7061 2.42887 14.8177 2.28623 15.0001 2.17394C 15.1799 2.05402 15.3719 2.00558 15.6605 2.008L 15.6605 1.408ZM 14.0529 2.44823C 13.7973 3.07211 13.6805 3.96369 13.6805 5.096L 14.2805 5.096C 14.2805 3.98831 14.3971 3.19056 14.6081 2.67577L 14.0529 2.44823ZM 25.2871 8.756L 26.8831 8.756L 26.8831 8.156L 25.2871 8.156L 25.2871 8.756ZM 27.1831 8.456L 27.1831 1.736L 26.5831 1.736L 26.5831 8.456L 27.1831 8.456ZM 26.8831 1.436L 25.5391 1.436L 25.5391 2.036L 26.8831 2.036L 26.8831 1.436ZM 25.2391 1.736L 25.2391 3.43L 25.8391 3.43L 25.8391 1.736L 25.2391 1.736ZM 25.5391 3.13L 23.9991 3.13L 23.9991 3.73L 25.5391 3.73L 25.5391 3.13ZM 24.2991 3.43L 24.2991 0.196L 23.6991 0.196L 23.6991 3.43L 24.2991 3.43ZM 23.9991 0.496L 31.6711 0.496L 31.6711 -0.104L 23.9991 -0.104L 23.9991 0.496ZM 31.3711 0.196L 31.3711 3.43L 31.9711 3.43L 31.9711 0.196L 31.3711 0.196ZM 31.6711 3.13L 30.1311 3.13L 30.1311 3.73L 31.6711 3.73L 31.6711 3.13ZM 30.4311 3.43L 30.4311 1.736L 29.8311 1.736L 29.8311 3.43L 30.4311 3.43ZM 30.1311 1.436L 28.8011 1.436L 28.8011 2.036L 30.1311 2.036L 30.1311 1.436ZM 28.5011 1.736L 28.5011 8.456L 29.1011 8.456L 29.1011 1.736L 28.5011 1.736ZM 28.8011 8.756L 30.3831 8.756L 30.3831 8.156L 28.8011 8.156L 28.8011 8.756ZM 30.0831 8.456L 30.0831 9.996L 30.6831 9.996L 30.6831 8.456L 30.0831 8.456ZM 30.3831 9.696L 25.2871 9.696L 25.2871 10.296L 30.3831 10.296L 30.3831 9.696ZM 25.5871 9.996L 25.5871 8.456L 24.9871 8.456L 24.9871 9.996L 25.5871 9.996ZM 37.9656 5.466L 42.0396 5.466L 42.0396 4.866L 37.9656 4.866L 37.9656 5.466ZM 41.7396 5.166L 41.7396 6.776L 42.3396 6.776L 42.3396 5.166L 41.7396 5.166ZM 42.0396 6.476L 37.9656 6.476L 37.9656 7.076L 42.0396 7.076L 42.0396 6.476ZM 38.2656 6.776L 38.2656 5.166L 37.6656 5.166L 37.6656 6.776L 38.2656 6.776ZM 55.1461 2.478C 55.1468 2.70061 55.1193 2.9042 55.0584 3.12801L 55.6378 3.28399C 55.7076 3.02246 55.7455 2.74072 55.7461 2.478L 55.1461 2.478ZM 55.0558 3.13854C 55.0073 3.35441 54.9316 3.52741 54.8063 3.709L 55.302 4.047C 55.4566 3.81792 55.5769 3.54293 55.6404 3.27346L 55.0558 3.13854ZM 54.81 3.70363C 54.6865 3.87861 54.5402 4.02079 54.3347 4.16519L 54.6815 4.65481C 54.9241 4.48187 55.1418 4.26939 55.2982 4.05237L 54.81 3.70363ZM 54.3417 4.16038C 54.1429 4.29466 53.9215 4.38579 53.6274 4.45397L 53.7648 5.03802C 54.1055 4.95688 54.4254 4.82401 54.6745 4.65961L 54.3417 4.16038ZM 53.3961 4.746L 53.3961 4.83L 53.9961 4.83L 53.9961 4.746L 53.3961 4.746ZM 53.6468 5.12592C 53.9085 5.16894 54.1381 5.23739 54.3723 5.34214L 54.616 4.79386C 54.3461 4.67461 54.0438 4.5844 53.7454 4.53408L 53.6468 5.12592ZM 54.3723 5.34214C 54.5983 5.44106 54.7697 5.56132 54.9349 5.7369L 55.3694 5.3231C 55.1612 5.10668 54.8939 4.91894 54.616 4.79386L 54.3723 5.34214ZM 54.9349 5.7369C 55.1006 5.90841 55.2132 6.09417 55.3045 6.34728L 55.8678 6.14072C 55.7537 5.83383 55.577 5.54359 55.3694 5.3231L 54.9349 5.7369ZM 55.3076 6.35542C 55.4093 6.60517 55.4552 6.88042 55.4541 7.238L 56.0541 7.238C 56.0531 6.83025 55.9869 6.44283 55.8647 6.13258L 55.3076 6.35542ZM 55.4541 7.238C 55.4563 7.70609 55.3683 8.06914 55.1721 8.40446L 55.6922 8.70354C 55.9253 8.29219 56.052 7.77791 56.0541 7.238L 55.4541 7.238ZM 55.1737 8.4016C 54.9788 8.73616 54.7382 8.98447 54.4022 9.19744L 54.726 9.70256C 55.1181 9.44887 55.4561 9.09984 55.6905 8.7064L 55.1737 8.4016ZM 54.3992 9.19937C 54.0677 9.41892 53.7088 9.57134 53.2748 9.67661L 53.4175 10.2594C 53.8982 10.1407 54.3512 9.94775 54.729 9.70062L 54.3992 9.19937ZM 53.2748 9.67661C 52.8353 9.7848 52.3997 9.83652 51.9321 9.836L 51.9321 10.436C 52.4352 10.4355 52.9423 10.3752 53.4175 10.2594L 53.2748 9.67661ZM 51.9321 9.836C 51.7735 9.836 51.5681 9.836 51.3161 9.836L 51.3161 10.436C 51.5681 10.436 51.7735 10.436 51.9321 10.436L 51.9321 9.836ZM 51.3161 9.836C 51.0787 9.83605 50.8224 9.82704 50.5374 9.80862L 50.4988 10.4074C 50.7925 10.4263 51.0682 10.436 51.3161 10.436L 51.3161 9.836ZM 50.5281 9.80817C 50.2528 9.79902 49.9725 9.78093 49.6781 9.75331L 49.6221 10.3507C 49.9251 10.3791 50.2235 10.3983 50.5081 10.4078L 50.5281 9.80817ZM 49.679 9.7534C 49.3987 9.7264 49.1519 9.6875 48.9196 9.63368L 48.7847 10.2183C 49.0376 10.2765 49.3229 10.3216 49.6212 10.3506L 49.679 9.7534ZM 49.1521 9.926L 49.1521 0.266L 48.5521 0.266L 48.5521 9.926L 49.1521 9.926ZM 48.8989 0.562329C 49.0736 0.534737 49.2695 0.50741 49.4913 0.479684L 49.4169 -0.115683C 49.1908 -0.0874103 48.9853 -0.0587377 48.8053 -0.0303289L 48.8989 0.562329ZM 49.4899 0.479863C 49.7194 0.452292 49.9596 0.429641 50.2175 0.411238L 50.1748 -0.187237C 49.91 -0.168309 49.6555 -0.144293 49.4184 -0.115863L 49.4899 0.479863ZM 50.2175 0.411238C 50.476 0.392758 50.7365 0.379049 51.0045 0.369822L 50.9838 -0.229822C 50.7104 -0.220382 50.4389 -0.206091 50.1748 -0.187237L 50.2175 0.411238ZM 51.0041 0.369833C 51.2817 0.360572 51.552 0.355989 51.8201 0.356L 51.8201 -0.244C 51.5469 -0.243989 51.2666 -0.239239 50.9841 -0.229834L 51.0041 0.369833ZM 51.8201 0.356C 52.2649 0.355735 52.6825 0.390875 53.0987 0.463563L 53.2015 -0.127564C 52.7591 -0.204209 52.2901 -0.243735 51.8201 -0.244L 51.8201 0.356ZM 53.1059 0.464727C 53.5217 0.525724 53.8608 0.631612 54.1721 0.797315L 54.4521 0.266684C 54.0915 0.0777214 53.6559 -0.0590575 53.1943 -0.128728L 53.1059 0.464727ZM 54.1751 0.79887C 54.4873 0.956401 54.7046 1.15144 54.8863 1.43697L 55.39 1.11102C 55.161 0.761888 54.8276 0.462265 54.4492 0.26513L 54.1751 0.79887ZM 54.8863 1.43697C 55.0524 1.69371 55.1461 2.03424 55.1461 2.478L 55.7461 2.478C 55.7461 1.9511 55.6345 1.48896 55.39 1.11102L 54.8863 1.43697ZM 51.9461 8.854C 52.1981 8.85342 52.46 8.82061 52.6938 8.76029L 52.5424 8.17972C 52.3469 8.23139 52.1608 8.25458 51.9461 8.254L 51.9461 8.854ZM 52.6909 8.76104C 52.9379 8.6983 53.181 8.59378 53.3725 8.46761L 53.0397 7.96838C 52.8952 8.06622 52.7463 8.1297 52.5454 8.17896L 52.6909 8.76104ZM 53.3818 8.4612C 53.5742 8.32022 53.7518 8.12421 53.8718 7.92031L 53.3525 7.61969C 53.2671 7.77046 53.1741 7.87312 53.0305 7.9748L 53.3818 8.4612ZM 53.8718 7.92031C 53.9931 7.70457 54.064 7.41854 54.0661 7.14L 53.4661 7.14C 53.4683 7.34679 53.4364 7.48076 53.3525 7.61969L 53.8718 7.92031ZM 54.0661 7.14C 54.0661 6.79663 53.999 6.48715 53.8317 6.24259L 53.3365 6.5814C 53.4119 6.69152 53.4661 6.86737 53.4661 7.14L 54.0661 7.14ZM 53.8317 6.24259C 53.6859 6.03409 53.4674 5.84763 53.2371 5.73514L 52.9791 6.27686C 53.1409 6.35104 53.2397 6.43525 53.3365 6.58141L 53.8317 6.24259ZM 53.2473 5.74025C 53.0251 5.62541 52.753 5.54411 52.4845 5.51198L 52.4157 6.10802C 52.6325 6.13189 52.7992 6.18126 52.9689 6.27175L 53.2473 5.74025ZM 52.4845 5.51198C 52.2333 5.48312 51.9734 5.46812 51.7221 5.468L 51.7221 6.068C 51.9561 6.06788 52.1816 6.08088 52.4157 6.10802L 52.4845 5.51198ZM 51.7221 5.468L 50.7001 5.468L 50.7001 6.068L 51.7221 6.068L 51.7221 5.468ZM 50.4001 5.768L 50.4001 8.47L 51.0001 8.47L 51.0001 5.768L 50.4001 5.768ZM 50.5887 8.74854C 50.6779 8.78423 50.7891 8.80096 50.897 8.81077L 50.9513 8.21323C 50.9059 8.20917 50.8757 8.20524 50.8464 8.19964C 50.8205 8.19501 50.8048 8.18819 50.8115 8.19146L 50.5887 8.74854ZM 50.897 8.81077C 51.0002 8.82015 51.1087 8.82959 51.2212 8.83896L 51.271 8.24104C 51.1596 8.23175 51.0534 8.22251 50.9513 8.21323L 50.897 8.81077ZM 51.2461 8.84C 51.3617 8.83994 51.4715 8.84417 51.5871 8.85312L 51.6331 8.25488C 51.5061 8.24516 51.3732 8.24006 51.2461 8.24L 51.2461 8.84ZM 51.6101 8.854C 51.7408 8.854 51.8528 8.854 51.9461 8.854L 51.9461 8.254C 51.8528 8.254 51.7408 8.254 51.6101 8.254L 51.6101 8.854ZM 51.3161 4.612C 51.4515 4.61196 51.6091 4.60705 51.7808 4.59754L 51.7475 3.99846C 51.5831 4.00762 51.4421 4.01204 51.3161 4.012L 51.3161 4.612ZM 51.7799 4.59759C 51.9638 4.58783 52.1253 4.5721 52.2474 4.55192L 52.1488 3.96008C 52.047 3.97723 51.9191 3.9895 51.7484 3.99841L 51.7799 4.59759ZM 52.2885 4.54207C 52.6712 4.41963 53.0295 4.22082 53.3074 3.97622L 52.9088 3.52778C 52.6827 3.73118 52.4344 3.86837 52.1078 3.96993L 52.2885 4.54207ZM 53.3034 3.97978C 53.6354 3.69515 53.8001 3.31583 53.8001 2.87L 53.2001 2.87C 53.2001 3.15216 53.1035 3.36085 52.9129 3.52422L 53.3034 3.97978ZM 53.8001 2.87C 53.8001 2.5904 53.7465 2.3331 53.6187 2.11589L 53.1015 2.42011C 53.1604 2.52024 53.2001 2.66427 53.2001 2.87L 53.8001 2.87ZM 53.6187 2.11589C 53.5041 1.92574 53.3244 1.74607 53.1342 1.63142L 52.83 2.14858C 52.9572 2.22059 53.0295 2.29293 53.1015 2.42011L 53.6187 2.11589ZM 53.1411 1.6356C 52.966 1.52787 52.7416 1.4426 52.5203 1.3993L 52.408 1.9887C 52.5787 2.02006 52.6996 2.06546 52.8231 2.1444L 53.1411 1.6356ZM 52.5203 1.3993C 52.3098 1.35958 52.0764 1.33831 51.8481 1.338L 51.8481 1.938C 52.0492 1.93769 52.2264 1.95375 52.408 1.9887L 52.5203 1.3993ZM 51.8481 1.338C 51.6023 1.33802 51.3715 1.34283 51.1625 1.35231L 51.1897 1.95169C 51.3914 1.9425 51.6086 1.93798 51.8481 1.938L 51.8481 1.338ZM 51.1625 1.35231C 50.9508 1.362 50.7743 1.37773 50.6508 1.39808L 50.7494 1.98992C 50.85 1.97293 50.9908 1.96067 51.1897 1.95169L 51.1625 1.35231ZM 50.4001 1.694L 50.4001 4.312L 51.0001 4.312L 51.0001 1.694L 50.4001 1.694ZM 50.7001 4.612L 51.3161 4.612L 51.3161 4.012L 50.7001 4.012L 50.7001 4.612ZM 60.9627 5.096C 60.9622 4.31829 61.0331 3.63872 61.1787 3.02271L 60.5946 2.88529C 60.4415 3.53861 60.3631 4.28704 60.3627 5.096L 60.9627 5.096ZM 61.1787 3.02271C 61.3209 2.41328 61.5259 1.93487 61.8164 1.53287L 61.3289 1.18313C 61.0034 1.6398 60.7511 2.22538 60.5946 2.88529L 61.1787 3.02271ZM 61.8182 1.53039C 62.104 1.11966 62.4318 0.831581 62.857 0.617228L 62.5843 0.082771C 62.0949 0.335085 61.6573 0.719005 61.3271 1.18561L 61.8182 1.53039ZM 62.8548 0.618328C 63.2865 0.399784 63.7648 0.29834 64.3587 0.3L 64.3587 -0.3C 63.7018 -0.29834 63.0881 -0.166451 62.5865 0.0816715L 62.8548 0.618328ZM 64.3587 0.3C 64.9981 0.298223 65.4953 0.407141 65.9241 0.641972L 66.2092 0.114029C 65.7047 -0.15514 65.0633 -0.298223 64.3587 -0.3L 64.3587 0.3ZM 65.9241 0.641972C 66.3588 0.873981 66.6816 1.17295 66.9486 1.59076L 67.4527 1.26524C 67.141 0.787046 66.7079 0.386018 66.2092 0.114028L 65.9241 0.641972ZM 66.951 1.59441C 67.2338 2.01567 67.4268 2.49939 67.551 3.09936L 68.1383 2.97664C 68.0012 2.32595 67.7648 1.73633 67.4503 1.26159L 66.951 1.59441ZM 67.5519 3.10354C 67.6885 3.71142 67.755 4.36458 67.7547 5.096L 68.3547 5.096C 68.3543 4.33409 68.2808 3.61525 68.1374 2.97246L 67.5519 3.10354ZM 67.7547 5.096C 67.7547 6.65799 67.4525 7.84163 66.8826 8.67924L 67.3787 9.01676C 68.0408 8.0437 68.3547 6.72601 68.3547 5.096L 67.7547 5.096ZM 66.8822 8.6798C 66.3403 9.48021 65.5175 9.892 64.3587 9.892L 64.3587 10.492C 65.6825 10.492 66.7077 10.0078 67.3791 9.0162L 66.8822 8.6798ZM 64.3587 9.892C 63.719 9.89375 63.2159 9.78434 62.777 9.54886L 62.4963 10.0791C 63.0094 10.3477 63.6543 10.4903 64.3587 10.492L 64.3587 9.892ZM 62.7792 9.55003C 62.3438 9.31749 62.015 9.01668 61.7383 8.59759L 61.239 8.93041C 61.5596 9.40732 61.9962 9.80651 62.4941 10.078L 62.7792 9.55003ZM 61.7407 8.60124C 61.4664 8.17927 61.2768 7.69369 61.1523 7.09264L 60.565 7.21536C 60.7018 7.86497 60.9323 8.45273 61.2366 8.92676L 61.7407 8.60124ZM 61.1523 7.09264C 61.0246 6.4837 60.9623 5.82843 60.9627 5.096L 60.3627 5.096C 60.363 5.8569 60.4314 6.57364 60.565 7.21536L 61.1523 7.09264ZM 62.3787 5.096C 62.3787 5.57831 62.398 6.03523 62.4359 6.45316L 63.0334 6.39884C 62.9967 5.99544 62.9786 5.56569 62.9787 5.096L 62.3787 5.096ZM 62.4366 6.45987C 62.4854 6.88601 62.5726 7.27978 62.6907 7.60652L 63.2546 7.40148C 63.1487 7.11222 63.0772 6.78733 63.0327 6.39213L 62.4366 6.45987ZM 62.6947 7.61691C 62.8308 7.94657 63.042 8.24461 63.2856 8.44929L 63.6677 7.98671C 63.482 7.83672 63.3572 7.65877 63.2506 7.39109L 62.6947 7.61691ZM 63.2904 8.45321C 63.5805 8.68285 63.9459 8.784 64.3587 8.784L 64.3587 8.184C 64.0434 8.184 63.8208 8.10781 63.6629 7.98279L 63.2904 8.45321ZM 64.3587 8.784C 64.7242 8.784 65.0529 8.71091 65.3266 8.54426L 65.0147 8.03174C 64.8591 8.12642 64.6465 8.184 64.3587 8.184L 64.3587 8.784ZM 65.3345 8.53928C 65.5854 8.3715 65.8118 8.09796 65.9605 7.78487L 65.4168 7.53113C 65.3042 7.77804 65.1852 7.9245 65.0068 8.03672L 65.3345 8.53928ZM 65.9605 7.78487C 66.1019 7.47872 66.2032 7.08153 66.2528 6.64113L 65.6565 6.57487C 65.6128 6.97447 65.5367 7.27728 65.4168 7.53113L 65.9605 7.78487ZM 66.2521 6.6468C 66.3094 6.20641 66.3385 5.68299 66.3387 5.096L 65.7387 5.096C 65.7388 5.66634 65.7119 6.15093 65.6572 6.5692L 66.2521 6.6468ZM 66.3387 5.096C 66.3386 4.63222 66.3193 4.18463 66.2814 3.76684L 65.6839 3.82116C 65.7207 4.2247 65.7387 4.64511 65.7387 5.096L 66.3387 5.096ZM 66.282 3.77359C 66.2519 3.34252 66.1675 2.93819 66.0378 2.60604L 65.4795 2.82596C 65.5925 3.10981 65.6574 3.42415 65.6833 3.81441L 66.282 3.77359ZM 66.0406 2.61348C 65.9131 2.27022 65.6975 1.96011 65.4409 1.75279L 65.0684 2.22321C 65.2598 2.37056 65.3802 2.54578 65.4767 2.81852L 66.0406 2.61348ZM 65.4467 1.75753C 65.1552 1.51457 64.7821 1.408 64.3587 1.408L 64.3587 2.008C 64.6819 2.008 64.9062 2.08809 65.0626 2.21847L 65.4467 1.75753ZM 64.3587 1.408C 63.994 1.41042 63.6376 1.50432 63.3741 1.66906C 63.1131 1.84144 62.8864 2.1258 62.7511 2.44823L 63.3062 2.67577C 63.4042 2.42887 63.5158 2.28623 63.6982 2.17394C 63.8781 2.05402 64.07 2.00558 64.3587 2.008L 64.3587 1.408ZM 62.7511 2.44823C 62.4954 3.07211 62.3787 3.96369 62.3787 5.096L 62.9787 5.096C 62.9787 3.98831 63.0953 3.19056 63.3062 2.67577L 62.7511 2.44823ZM 73.9852 8.756L 75.5812 8.756L 75.5812 8.156L 73.9852 8.156L 73.9852 8.756ZM 75.8812 8.456L 75.8812 1.736L 75.2812 1.736L 75.2812 8.456L 75.8812 8.456ZM 75.5812 1.436L 74.2372 1.436L 74.2372 2.036L 75.5812 2.036L 75.5812 1.436ZM 73.9372 1.736L 73.9372 3.43L 74.5372 3.43L 74.5372 1.736L 73.9372 1.736ZM 74.2372 3.13L 72.6972 3.13L 72.6972 3.73L 74.2372 3.73L 74.2372 3.13ZM 72.9972 3.43L 72.9972 0.196L 72.3972 0.196L 72.3972 3.43L 72.9972 3.43ZM 72.6972 0.496L 80.3692 0.496L 80.3692 -0.104L 72.6972 -0.104L 72.6972 0.496ZM 80.0692 0.196L 80.0692 3.43L 80.6692 3.43L 80.6692 0.196L 80.0692 0.196ZM 80.3692 3.13L 78.8292 3.13L 78.8292 3.73L 80.3692 3.73L 80.3692 3.13ZM 79.1292 3.43L 79.1292 1.736L 78.5292 1.736L 78.5292 3.43L 79.1292 3.43ZM 78.8292 1.436L 77.4992 1.436L 77.4992 2.036L 78.8292 2.036L 78.8292 1.436ZM 77.1992 1.736L 77.1992 8.456L 77.7992 8.456L 77.7992 1.736L 77.1992 1.736ZM 77.4992 8.756L 79.0812 8.756L 79.0812 8.156L 77.4992 8.156L 77.4992 8.756ZM 78.7812 8.456L 78.7812 9.996L 79.3812 9.996L 79.3812 8.456L 78.7812 8.456ZM 79.0812 9.696L 73.9852 9.696L 73.9852 10.296L 79.0812 10.296L 79.0812 9.696ZM 74.2852 9.996L 74.2852 8.456L 73.6852 8.456L 73.6852 9.996L 74.2852 9.996ZM 0 26.006L 1.54 26.006L 1.54 25.406L 0 25.406L 0 26.006ZM 1.24 25.706L 1.24 27.274L 1.84 27.274L 1.84 25.706L 1.24 25.706ZM 1.44513 27.5586C 1.46481 27.565 1.46844 27.5663 1.47583 27.5703L 1.74417 27.0337C 1.71423 27.019 1.67119 27.0016 1.63487 26.9894L 1.44513 27.5586ZM 1.51904 27.5879C 1.73196 27.6555 1.96152 27.7154 2.19281 27.7637L 2.31519 27.1763C 2.09848 27.1313 1.89871 27.0792 1.70096 27.0161L 1.51904 27.5879ZM 2.19517 27.7642C 2.44403 27.8135 2.72549 27.8397 3.01 27.84L 3.01 27.24C 2.75318 27.2403 2.53064 27.2198 2.31283 27.1758L 2.19517 27.7642ZM 3.01 27.84C 3.25344 27.8394 3.50767 27.8061 3.73294 27.7454L 3.57506 27.1666C 3.38966 27.2179 3.21456 27.2406 3.01 27.24L 3.01 27.84ZM 3.72973 27.7463C 3.97 27.6824 4.21159 27.5702 4.40365 27.4332L 4.05235 26.9468C 3.90841 27.0524 3.76733 27.1176 3.57827 27.1657L 3.72973 27.7463ZM 4.40365 27.4332C 4.59969 27.2889 4.77701 27.08 4.88833 26.8622L 4.35167 26.5938C 4.27633 26.7493 4.19231 26.8484 4.05235 26.9468L 4.40365 27.4332ZM 4.88287 26.8726C 5.003 26.6482 5.0721 26.3511 5.074 26.056L 4.474 26.056C 4.4759 26.2836 4.44233 26.4345 4.35714 26.5834L 4.88287 26.8726ZM 5.074 26.056C 5.074 25.7267 5.00506 25.4284 4.83959 25.1866L 4.34441 25.5254C 4.42161 25.6382 4.474 25.8066 4.474 26.056L 5.074 26.056ZM 4.84925 25.2017C 4.712 24.9791 4.49319 24.7802 4.25898 24.6651L 4.00102 25.2069C 4.15881 25.2784 4.248 25.3595 4.33475 25.5103L 4.84925 25.2017ZM 4.2692 24.6703C 4.04881 24.5562 3.77693 24.4709 3.50197 24.4292L 3.41404 25.0228C 3.64307 25.0558 3.81919 25.1105 3.9908 25.2018L 4.2692 24.6703ZM 3.50362 24.4295C 3.25225 24.3909 2.98765 24.366 2.7271 24.3562L 2.7049 24.9558C 2.94835 24.9647 3.17842 24.9864 3.41238 25.0225L 3.50362 24.4295ZM 2.716 24.356L 2.296 24.356L 2.296 24.956L 2.716 24.956L 2.716 24.356ZM 2.596 24.656L 2.596 23.158L 1.996 23.158L 1.996 24.656L 2.596 24.656ZM 2.296 23.458L 2.702 23.458L 2.702 22.858L 2.296 22.858L 2.296 23.458ZM 2.702 23.458C 2.91191 23.4577 3.13943 23.4366 3.35767 23.3972L 3.25033 22.8068C 3.0579 22.8421 2.88409 22.8583 2.702 22.858L 2.702 23.458ZM 3.3554 23.3976C 3.59307 23.3553 3.8318 23.2735 4.02369 23.1682L 3.73231 22.6438C 3.5882 22.7252 3.44427 22.774 3.2526 22.8064L 3.3554 23.3976ZM 4.02369 23.1682C 4.2203 23.0568 4.41029 22.8859 4.54309 22.701L 4.05291 22.355C 3.96171 22.4874 3.8717 22.5685 3.73231 22.6438L 4.02369 23.1682ZM 4.54762 22.6944C 4.6834 22.4835 4.76346 22.189 4.766 21.898L 4.166 21.898C 4.16854 22.111 4.1366 22.2365 4.04839 22.3616L 4.54762 22.6944ZM 4.766 21.898C 4.76407 21.6494 4.70374 21.393 4.60147 21.2049L 4.07853 21.4991C 4.14426 21.6097 4.16793 21.7173 4.166 21.898L 4.766 21.898ZM 4.60514 21.2116C 4.5007 21.0198 4.33058 20.8362 4.149 20.7196L 3.831 21.2284C 3.94809 21.2985 4.0113 21.3669 4.07486 21.4924L 4.60514 21.2116ZM 4.15996 20.7268C 3.98587 20.6088 3.76264 20.512 3.54149 20.4582L 3.40251 21.0418C 3.57336 21.0813 3.69547 21.1339 3.82004 21.2212L 4.15996 20.7268ZM 3.54149 20.4582C 3.32705 20.4077 3.07757 20.3804 2.828 20.38L 2.828 20.98C 3.0451 20.9796 3.22495 20.999 3.40251 21.0418L 3.54149 20.4582ZM 2.828 20.38C 2.37114 20.3806 1.94712 20.4326 1.59758 20.5315L 1.76242 21.1085C 2.06622 21.0207 2.40752 20.9794 2.828 20.98L 2.828 20.38ZM 1.38 20.82L 1.38 22.262L 1.98 22.262L 1.98 20.82L 1.38 20.82ZM 1.68 21.962L 0.14 21.962L 0.14 22.562L 1.68 22.562L 1.68 21.962ZM 0.44 22.262L 0.44 19.602L -0.16 19.602L -0.16 22.262L 0.44 22.262ZM 0.259073 19.8774C 0.587465 19.7347 1.00153 19.613 1.53078 19.5038L 1.40922 18.9162C 0.855807 19.031 0.383201 19.1706 0.0209266 19.3266L 0.259073 19.8774ZM 1.53455 19.503C 2.06866 19.3848 2.61499 19.3276 3.206 19.328L 3.206 18.728C 2.58367 18.7284 1.97267 18.7925 1.40545 18.917L 1.53455 19.503ZM 3.206 19.328C 3.60103 19.3276 3.97089 19.3663 4.34714 19.4473L 4.47286 18.8607C 4.06511 18.7737 3.6323 18.7284 3.206 18.728L 3.206 19.328ZM 4.35387 19.4487C 4.7195 19.5171 5.01671 19.6318 5.29894 19.8131L 5.62106 19.3069C 5.28729 19.0962 4.8845 18.9402 4.46613 18.8593L 4.35387 19.4487ZM 5.30451 19.8166C 5.58067 19.981 5.77525 20.1832 5.94153 20.4788L 6.46247 20.1812C 6.25542 19.8235 5.95533 19.5123 5.61549 19.3034L 5.30451 19.8166ZM 5.94342 20.4821C 6.09565 20.7409 6.182 21.0856 6.182 21.534L 6.782 21.534C 6.782 21.0117 6.68168 20.5538 6.46058 20.1779L 5.94342 20.4821ZM 6.182 21.534C 6.18514 21.9761 6.07975 22.3306 5.84039 22.6836L 6.33962 23.0164C 6.62292 22.5854 6.77886 22.0626 6.782 21.534L 6.182 21.534ZM 5.83765 22.6878C 5.63247 23.0069 5.28737 23.2615 4.76453 23.4329L 4.95146 24.0031C 5.56729 23.8012 6.04353 23.4771 6.34235 23.0122L 5.83765 22.6878ZM 4.558 23.718L 4.558 23.788L 5.158 23.788L 5.158 23.718L 4.558 23.718ZM 4.78317 24.0785C 5.3572 24.2264 5.77581 24.4676 6.06301 24.7867L 6.50899 24.3853C 6.12419 23.9578 5.59079 23.667 4.93283 23.4975L 4.78317 24.0785ZM 6.06301 24.7867C 6.33471 25.0886 6.49 25.5307 6.49 26.154L 7.09 26.154C 7.09 25.4333 6.90929 24.8301 6.50899 24.3853L 6.06301 24.7867ZM 6.49 26.154C 6.49199 26.6515 6.40306 27.0346 6.20636 27.3792L 6.72964 27.6728C 6.96227 27.2521 7.08801 26.7205 7.09 26.154L 6.49 26.154ZM 6.20636 27.3792C 6.00938 27.7341 5.7689 28.0022 5.44024 28.2334L 5.78776 28.7226C 6.16843 28.4498 6.49729 28.0833 6.72964 27.6728L 6.20636 27.3792ZM 5.44152 28.2325C 5.12109 28.4595 4.77065 28.614 4.33864 28.7186L 4.48136 29.3014C 4.96401 29.182 5.41624 28.9819 5.78648 28.7235L 5.44152 28.2325ZM 4.33307 28.72C 3.89474 28.837 3.46662 28.8926 3.01 28.892L 3.01 29.492C 3.50538 29.4914 4.01059 29.4257 4.48693 29.3L 4.33307 28.72ZM 3.01 28.892C 2.4087 28.8924 1.87085 28.8396 1.36486 28.7307L 1.23914 29.3173C 1.77848 29.4324 2.3793 29.4916 3.01 29.492L 3.01 28.892ZM 1.36083 28.7298C 0.86284 28.6306 0.463801 28.5066 0.128426 28.3469L -0.128426 28.8891C 0.245532 29.0654 0.714494 29.212 1.24317 29.3182L 1.36083 28.7298ZM 0.3 28.618L 0.3 25.706L -0.3 25.706L -0.3 28.618L 0.3 28.618ZM 17.0605 26.526L 14.1345 26.526L 14.1345 27.126L 17.0605 27.126L 17.0605 26.526ZM 13.848 26.7373L 13.176 28.9073L 13.7491 29.0847L 14.4211 26.9147L 13.848 26.7373ZM 13.4625 28.696L 11.5445 28.696L 11.5445 29.296L 13.4625 29.296L 13.4625 28.696ZM 11.83 29.0882L 14.994 19.2882L 14.423 19.1038L 11.259 28.9038L 11.83 29.0882ZM 14.7085 19.496L 16.6265 19.496L 16.6265 18.896L 14.7085 18.896L 14.7085 19.496ZM 16.3409 19.2878L 19.4909 29.0878L 20.0621 28.9042L 16.9121 19.1042L 16.3409 19.2878ZM 19.7765 28.696L 17.7605 28.696L 17.7605 29.296L 19.7765 29.296L 19.7765 28.696ZM 18.046 28.9039L 17.346 26.7339L 16.775 26.9181L 17.475 29.0881L 18.046 28.9039ZM 14.5825 25.586L 16.6825 25.586L 16.6825 24.986L 14.5825 24.986L 14.5825 25.586ZM 16.9696 25.1989L 15.9756 21.9229L 15.4015 22.0971L 16.3955 25.3731L 16.9696 25.1989ZM 15.6885 21.71L 15.5625 21.71L 15.5625 22.31L 15.6885 22.31L 15.6885 21.71ZM 15.2751 21.924L 14.2951 25.2L 14.8699 25.372L 15.8499 22.096L 15.2751 21.924ZM 29.3331 20.604L 26.3371 20.604L 26.3371 21.204L 29.3331 21.204L 29.3331 20.604ZM 26.0371 20.904L 26.0371 28.996L 26.6371 28.996L 26.6371 20.904L 26.0371 20.904ZM 26.3371 28.696L 24.4191 28.696L 24.4191 29.296L 26.3371 29.296L 26.3371 28.696ZM 24.7191 28.996L 24.7191 19.196L 24.1191 19.196L 24.1191 28.996L 24.7191 28.996ZM 24.4191 19.496L 31.2511 19.496L 31.2511 18.896L 24.4191 18.896L 24.4191 19.496ZM 30.9511 19.196L 30.9511 28.996L 31.5511 28.996L 31.5511 19.196L 30.9511 19.196ZM 31.2511 28.696L 29.3331 28.696L 29.3331 29.296L 31.2511 29.296L 31.2511 28.696ZM 29.6331 28.996L 29.6331 20.904L 29.0331 20.904L 29.0331 28.996L 29.6331 28.996ZM 39.9676 24.648L 40.6396 24.648L 40.6396 24.048L 39.9676 24.048L 39.9676 24.648ZM 40.9293 24.4259L 42.3153 19.2739L 41.7359 19.1181L 40.3499 24.2701L 40.9293 24.4259ZM 42.0256 19.496L 43.9996 19.496L 43.9996 18.896L 42.0256 18.896L 42.0256 19.496ZM 43.713 19.1073L 41.473 26.3453L 42.0462 26.5227L 44.2862 19.2847L 43.713 19.1073ZM 41.4737 26.343C 41.346 26.7449 41.2086 27.0997 41.0543 27.4259L 41.5969 27.6821C 41.7599 27.3363 41.9119 26.9444 42.0455 26.525L 41.4737 26.343ZM 41.0527 27.4293C 40.9142 27.7346 40.7557 27.9728 40.5492 28.1862L 40.982 28.6018C 41.2235 28.3485 41.4383 28.0267 41.5984 27.6787L 41.0527 27.4293ZM 40.549 28.1864C 40.3587 28.3876 40.1512 28.5245 39.8716 28.6329L 40.0916 29.1911C 40.428 29.0568 40.7431 28.8484 40.9822 28.6016L 40.549 28.1864ZM 39.8716 28.6329C 39.5941 28.7441 39.2761 28.795 38.8616 28.794L 38.8616 29.394C 39.3244 29.393 39.7531 29.3226 40.0916 29.1911L 39.8716 28.6329ZM 38.8616 28.794C 38.6053 28.7943 38.3946 28.7743 38.1973 28.7308L 38.0699 29.3172C 38.302 29.3671 38.5766 29.3937 38.8616 29.394L 38.8616 28.794ZM 38.1973 28.7308C 38.0093 28.6913 37.8205 28.6114 37.5865 28.4719L 37.2807 28.9881C 37.5507 29.1473 37.8286 29.2634 38.0699 29.3172L 38.1973 28.7308ZM 37.7197 28.8202L 38.2097 27.2662L 37.6375 27.0858L 37.1475 28.6398L 37.7197 28.8202ZM 37.7894 27.4443C 37.9702 27.5344 38.1482 27.6028 38.2901 27.6363L 38.4251 27.0517C 38.3244 27.0292 38.213 26.9856 38.0578 26.9077L 37.7894 27.4443ZM 38.2947 27.6373C 38.4418 27.6684 38.6133 27.6856 38.7776 27.686L 38.7776 27.086C 38.6432 27.0864 38.5347 27.0756 38.4205 27.0507L 38.2947 27.6373ZM 38.7776 27.686C 39.007 27.685 39.2358 27.6471 39.407 27.5805L 39.1842 27.0235C 39.0754 27.0689 38.9588 27.087 38.7776 27.086L 38.7776 27.686ZM 39.407 27.5805C 39.5826 27.5075 39.7597 27.3741 39.8716 27.23L 39.3916 26.87C 39.3355 26.9499 39.2886 26.9845 39.1842 27.0235L 39.407 27.5805ZM 39.8621 27.2421C 39.9717 27.1087 40.0753 26.9267 40.1492 26.7387L 39.59 26.5213C 39.5332 26.6693 39.4782 26.7673 39.4011 26.8579L 39.8621 27.2421ZM 40.1492 26.7387C 40.2179 26.5618 40.2838 26.3539 40.3419 26.1317L 39.7613 25.9803C 39.7074 26.1874 39.652 26.3622 39.59 26.5213L 40.1492 26.7387ZM 40.0516 25.756L 38.6376 25.756L 38.6376 26.356L 40.0516 26.356L 40.0516 25.756ZM 38.9161 25.9446L 36.1721 19.0846L 35.615 19.3074L 38.359 26.1674L 38.9161 25.9446ZM 35.8936 19.496L 37.9516 19.496L 37.9516 18.896L 35.8936 18.896L 35.8936 19.496ZM 37.6722 19.3053L 39.6882 24.4573L 40.247 24.2387L 38.231 19.0867L 37.6722 19.3053ZM 54.2001 26.006L 55.7401 26.006L 55.7401 25.406L 54.2001 25.406L 54.2001 26.006ZM 55.4401 25.706L 55.4401 28.506L 56.0401 28.506L 56.0401 25.706L 55.4401 25.706ZM 55.565 28.2624C 55.2928 28.4601 54.9604 28.6052 54.5166 28.7197L 54.6676 29.3003C 55.1571 29.1721 55.5901 28.9812 55.9152 28.7496L 55.565 28.2624ZM 54.5152 28.72C 54.0771 28.8369 53.6443 28.8926 53.1781 28.892L 53.1781 29.492C 53.6826 29.4914 54.1925 29.4257 54.6691 29.3L 54.5152 28.72ZM 53.1781 28.892C 52.5846 28.8928 52.042 28.8111 51.5047 28.64L 51.3236 29.212C 51.9063 29.3956 52.5397 29.4912 53.1781 29.492L 53.1781 28.892ZM 51.5104 28.6419C 50.9901 28.4674 50.5606 28.2072 50.1654 27.8271L 49.7509 28.2609C 50.1957 28.6835 50.7368 29.0113 51.3178 29.2101L 51.5104 28.6419ZM 50.1679 27.8295C 49.771 27.4442 49.4696 26.9701 49.2295 26.3527L 48.6707 26.5713C 48.9347 27.2419 49.3052 27.8224 49.7484 28.2585L 50.1679 27.8295ZM 49.23 26.354C 48.9878 25.7306 48.8712 24.9963 48.8721 24.096L 48.2721 24.096C 48.2731 25.0437 48.4085 25.8867 48.6702 26.57L 49.23 26.354ZM 48.8721 24.096C 48.871 23.1605 48.9995 22.4182 49.2672 21.8076L 48.717 21.5684C 48.4248 22.2458 48.2732 23.1088 48.2721 24.096L 48.8721 24.096ZM 49.2664 21.8095C 49.5425 21.1826 49.873 20.7128 50.2957 20.3458L 49.9006 19.8942C 49.4272 20.3112 49.0205 20.8867 48.7178 21.5665L 49.2664 21.8095ZM 50.2983 20.3434C 50.7215 19.9621 51.1642 19.7095 51.6837 19.5529L 51.5086 18.9791C 50.9267 19.1585 50.3708 19.4753 49.898 19.8965L 50.2983 20.3434ZM 51.6881 19.5516C 52.2172 19.3803 52.7124 19.299 53.2201 19.3L 53.2201 18.7C 52.6638 18.701 52.0764 18.797 51.5042 18.9804L 51.6881 19.5516ZM 53.2201 19.3C 53.7653 19.2996 54.201 19.3424 54.563 19.4315L 54.7052 18.8485C 54.3019 18.7509 53.7949 18.7004 53.2201 18.7L 53.2201 19.3ZM 54.5646 19.4318C 54.9439 19.5218 55.2354 19.6187 55.47 19.7323L 55.7303 19.1917C 55.4609 19.0627 55.1084 18.9448 54.7036 18.8482L 54.5646 19.4318ZM 55.3001 19.462L 55.3001 22.374L 55.9001 22.374L 55.9001 19.462L 55.3001 19.462ZM 55.6001 22.074L 54.0601 22.074L 54.0601 22.674L 55.6001 22.674L 55.6001 22.074ZM 54.3601 22.374L 54.3601 20.778L 53.7601 20.778L 53.7601 22.374L 54.3601 22.374ZM 54.1079 20.4818C 53.8064 20.4335 53.4838 20.4082 53.1641 20.408L 53.1641 21.008C 53.4604 21.0078 53.7352 21.0292 54.0124 21.0742L 54.1079 20.4818ZM 53.1641 20.408C 52.7698 20.4095 52.3682 20.4922 52.021 20.6435L 52.2632 21.1925C 52.5507 21.0638 52.8305 21.0065 53.1641 21.008L 53.1641 20.408ZM 52.025 20.6418C 51.6837 20.7891 51.3562 21.0371 51.0997 21.3419L 51.5606 21.7261C 51.7707 21.4709 51.9845 21.3082 52.2593 21.1942L 52.025 20.6418ZM 51.0997 21.3419C 50.8466 21.6485 50.6367 22.0561 50.4971 22.5107L 51.0711 22.6853C 51.1929 22.2813 51.347 21.9795 51.5606 21.7261L 51.0997 21.3419ZM 50.4977 22.5089C 50.3604 22.9537 50.2888 23.4978 50.2881 24.096L 50.8881 24.096C 50.8875 23.5368 50.9465 23.0823 51.0706 22.6871L 50.4977 22.5089ZM 50.2881 24.096C 50.2888 24.6196 50.3551 25.1233 50.4819 25.5653L 51.0583 25.3987C 50.9425 25.0007 50.8875 24.5804 50.8881 24.096L 50.2881 24.096ZM 50.4824 25.567C 50.6124 26.0027 50.8152 26.4076 51.0657 26.7307L 51.5385 26.3613C 51.3224 26.0871 51.1706 25.7827 51.0578 25.397L 50.4824 25.567ZM 51.0657 26.7307C 51.3209 27.0543 51.6569 27.3297 52.022 27.5143L 52.2903 26.9777C 51.9833 26.8263 51.7501 26.635 51.5385 26.3613L 51.0657 26.7307ZM 52.028 27.5173C 52.397 27.6892 52.8442 27.7824 53.3041 27.784L 53.3041 27.184C 52.9054 27.1856 52.5873 27.1202 52.2842 26.9747L 52.028 27.5173ZM 53.3041 27.784C 53.6261 27.7837 53.9533 27.753 54.2571 27.6945L 54.1431 27.1055C 53.8682 27.159 53.5981 27.1843 53.3041 27.184L 53.3041 27.784ZM 54.5001 27.4L 54.5001 25.706L 53.9001 25.706L 53.9001 27.4L 54.5001 27.4ZM 61.8107 27.756L 63.4067 27.756L 63.4067 27.156L 61.8107 27.156L 61.8107 27.756ZM 63.7067 27.456L 63.7067 20.736L 63.1067 20.736L 63.1067 27.456L 63.7067 27.456ZM 63.4067 20.436L 62.0627 20.436L 62.0627 21.036L 63.4067 21.036L 63.4067 20.436ZM 61.7627 20.736L 61.7627 22.43L 62.3627 22.43L 62.3627 20.736L 61.7627 20.736ZM 62.0627 22.13L 60.5227 22.13L 60.5227 22.73L 62.0627 22.73L 62.0627 22.13ZM 60.8227 22.43L 60.8227 19.196L 60.2227 19.196L 60.2227 22.43L 60.8227 22.43ZM 60.5227 19.496L 68.1947 19.496L 68.1947 18.896L 60.5227 18.896L 60.5227 19.496ZM 67.8947 19.196L 67.8947 22.43L 68.4947 22.43L 68.4947 19.196L 67.8947 19.196ZM 68.1947 22.13L 66.6547 22.13L 66.6547 22.73L 68.1947 22.73L 68.1947 22.13ZM 66.9547 22.43L 66.9547 20.736L 66.3547 20.736L 66.3547 22.43L 66.9547 22.43ZM 66.6547 20.436L 65.3247 20.436L 65.3247 21.036L 66.6547 21.036L 66.6547 20.436ZM 65.0247 20.736L 65.0247 27.456L 65.6247 27.456L 65.6247 20.736L 65.0247 20.736ZM 65.3247 27.756L 66.9067 27.756L 66.9067 27.156L 65.3247 27.156L 65.3247 27.756ZM 66.6067 27.456L 66.6067 28.996L 67.2067 28.996L 67.2067 27.456L 66.6067 27.456ZM 66.9067 28.696L 61.8107 28.696L 61.8107 29.296L 66.9067 29.296L 66.9067 28.696ZM 62.1107 28.996L 62.1107 27.456L 61.5107 27.456L 61.5107 28.996L 62.1107 28.996ZM 78.414 23.8423L 78.526 22.5683L 77.9283 22.5157L 77.8163 23.7897L 78.414 23.8423ZM 78.2272 22.242L 78.1572 22.242L 78.1572 22.842L 78.2272 22.842L 78.2272 22.242ZM 77.8822 22.4221L 77.3082 23.7381L 77.8582 23.9779L 78.4322 22.6619L 77.8822 22.4221ZM 77.3192 23.7156L 74.5472 28.8536L 75.0752 29.1384L 77.8472 24.0004L 77.3192 23.7156ZM 74.8112 28.696L 73.0332 28.696L 73.0332 29.296L 74.8112 29.296L 74.8112 28.696ZM 73.3332 28.996L 73.3332 19.196L 72.7332 19.196L 72.7332 28.996L 73.3332 28.996ZM 73.0332 19.496L 74.9512 19.496L 74.9512 18.896L 73.0332 18.896L 73.0332 19.496ZM 74.6512 19.196L 74.6512 24.278L 75.2512 24.278L 75.2512 19.196L 74.6512 19.196ZM 74.6529 24.2463L 74.5129 25.5623L 75.1095 25.6257L 75.2495 24.3097L 74.6529 24.2463ZM 74.8112 25.894L 74.8952 25.894L 74.8952 25.294L 74.8112 25.294L 74.8112 25.894ZM 75.1694 25.7156L 75.7714 24.3576L 75.2229 24.1144L 74.6209 25.4724L 75.1694 25.7156ZM 75.76 24.3806L 78.5321 19.3406L 78.0063 19.0514L 75.2343 24.0914L 75.76 24.3806ZM 78.2692 19.496L 80.0332 19.496L 80.0332 18.896L 78.2692 18.896L 78.2692 19.496ZM 79.7332 19.196L 79.7332 28.996L 80.3332 28.996L 80.3332 19.196L 79.7332 19.196ZM 80.0332 28.696L 78.1152 28.696L 78.1152 29.296L 80.0332 29.296L 80.0332 28.696ZM 78.4152 28.996L 78.4152 23.816L 77.8152 23.816L 77.8152 28.996L 78.4152 28.996ZM 90.7294 23.7877L 90.7994 22.2617L 90.2 22.2343L 90.13 23.7603L 90.7294 23.7877ZM 90.4997 21.948L 90.4157 21.948L 90.4157 22.548L 90.4997 22.548L 90.4997 21.948ZM 90.1598 22.0914L 88.5918 24.6534L 89.1036 24.9666L 90.6716 22.4046L 90.1598 22.0914ZM 88.8477 24.51L 88.5117 24.51L 88.5117 25.11L 88.8477 25.11L 88.8477 24.51ZM 88.7645 24.6484L 87.1265 22.0864L 86.621 22.4096L 88.259 24.9716L 88.7645 24.6484ZM 86.8737 21.948L 86.8037 21.948L 86.8037 22.548L 86.8737 22.548L 86.8737 21.948ZM 86.5043 22.2663L 86.5883 23.6383L 87.1872 23.6017L 87.1032 22.2297L 86.5043 22.2663ZM 86.5877 23.62L 86.5877 28.996L 87.1877 28.996L 87.1877 23.62L 86.5877 23.62ZM 86.8877 28.696L 85.0677 28.696L 85.0677 29.296L 86.8877 29.296L 86.8877 28.696ZM 85.3677 28.996L 85.3677 19.196L 84.7677 19.196L 84.7677 28.996L 85.3677 28.996ZM 85.0677 19.496L 87.0137 19.496L 87.0137 18.896L 85.0677 18.896L 85.0677 19.496ZM 86.7586 19.3538L 88.4386 22.0698L 88.9489 21.7542L 87.2689 19.0382L 86.7586 19.3538ZM 88.6937 22.212L 88.7497 22.212L 88.7497 21.612L 88.6937 21.612L 88.6937 22.212ZM 89.0054 22.0689L 90.6714 19.3529L 90.16 19.0391L 88.494 21.7551L 89.0054 22.0689ZM 90.4157 19.496L 92.3477 19.496L 92.3477 18.896L 90.4157 18.896L 90.4157 19.496ZM 92.0477 19.196L 92.0477 28.996L 92.6477 28.996L 92.6477 19.196L 92.0477 19.196ZM 92.3477 28.696L 90.4297 28.696L 90.4297 29.296L 92.3477 29.296L 92.3477 28.696ZM 90.7297 28.996L 90.7297 23.774L 90.1297 23.774L 90.1297 28.996L 90.7297 28.996Z"/>
</defs>
</svg>
